<svg width="17" height="13" viewBox="0 0 17 13" fill="none" xmlns="http://www.w3.org/2000/svg">
<mask id="path-1-inside-1_366_346" fill="white">
<path fill-rule="evenodd" clip-rule="evenodd" d="M14.95 2H17V3H14.95C14.7184 4.14112 13.7095 5 12.5 5C11.2905 5 10.2816 4.14112 10.05 3H0V2H10.05C10.2816 0.85888 11.2905 0 12.5 0C13.7095 0 14.7184 0.85888 14.95 2ZM6.94999 6L17 6V7L6.94999 7C6.71836 8.14112 5.70948 9 4.5 9C3.29052 9 2.28164 8.14112 2.05001 7H0V6H2.05001C2.28164 4.85888 3.29052 4 4.5 4C5.70948 4 6.71836 4.85888 6.94999 6ZM10.05 11L0 11V10L10.05 10C10.2816 8.85888 11.2905 8 12.5 8C13.7095 8 14.7184 8.85888 14.95 10H17V11H14.95C14.7184 12.1411 13.7095 13 12.5 13C11.2905 13 10.2816 12.1411 10.05 11Z"/>
</mask>
<path d="M17 2H18V1H17V2ZM14.95 2L13.97 2.19893L14.1326 3H14.95V2ZM17 3V4H18V3H17ZM14.95 3V2H14.1326L13.97 2.80107L14.95 3ZM10.05 3L11.03 2.80107L10.8674 2H10.05V3ZM0 3H-1V4H0V3ZM0 2V1H-1V2H0ZM10.05 2V3H10.8674L11.03 2.19893L10.05 2ZM17 6H18V5H17V6ZM6.94999 6L5.96998 6.19893L6.13259 7H6.94999V6ZM17 7V8H18V7H17ZM6.94999 7V6H6.13259L5.96998 6.80107L6.94999 7ZM2.05001 7L3.03002 6.80107L2.86741 6H2.05001V7ZM0 7H-1V8H0V7ZM0 6V5H-1V6H0ZM2.05001 6V7H2.86741L3.03002 6.19893L2.05001 6ZM0 11H-1V12H1.89786e-07L0 11ZM10.05 11L11.03 10.8011L10.8674 10H10.05V11ZM0 10L-1.89786e-07 9H-1V10H0ZM10.05 10V11H10.8674L11.03 10.1989L10.05 10ZM14.95 10L13.97 10.1989L14.1326 11H14.95V10ZM17 10H18V9H17V10ZM17 11V12H18V11H17ZM14.95 11V10H14.1326L13.97 10.8011L14.95 11ZM17 1H14.95V3H17V1ZM18 3V2H16V3H18ZM14.95 4H17V2H14.95V4ZM12.5 6C14.1944 6 15.6056 4.79692 15.93 3.19893L13.97 2.80107C13.8311 3.48532 13.2245 4 12.5 4V6ZM9.07 3.19893C9.39437 4.79692 10.8056 6 12.5 6V4C11.7755 4 11.1689 3.48532 11.03 2.80107L9.07 3.19893ZM0 4H10.05V2H0V4ZM-1 2V3H1V2H-1ZM10.05 1H0V3H10.05V1ZM12.5 -1C10.8056 -1 9.39437 0.203079 9.07 1.80107L11.03 2.19893C11.1689 1.51468 11.7755 1 12.5 1V-1ZM15.93 1.80107C15.6056 0.203079 14.1944 -1 12.5 -1V1C13.2245 1 13.8311 1.51468 13.97 2.19893L15.93 1.80107ZM17 5L6.94999 5V7L17 7V5ZM18 7V6H16V7H18ZM6.94999 8L17 8V6L6.94999 6V8ZM4.5 10C6.19443 10 7.60563 8.79692 7.93 7.19893L5.96998 6.80107C5.83108 7.48532 5.22452 8 4.5 8V10ZM1.07 7.19893C1.39437 8.79692 2.80557 10 4.5 10V8C3.77548 8 3.16892 7.48532 3.03002 6.80107L1.07 7.19893ZM0 8H2.05001V6H0V8ZM-1 6V7H1V6H-1ZM2.05001 5H0V7H2.05001V5ZM4.5 3C2.80557 3 1.39437 4.20308 1.07 5.80107L3.03002 6.19893C3.16892 5.51468 3.77548 5 4.5 5V3ZM7.93 5.80107C7.60563 4.20308 6.19443 3 4.5 3V5C5.22452 5 5.83108 5.51468 5.96998 6.19893L7.93 5.80107ZM1.89786e-07 12L10.05 12V10L-1.89786e-07 10L1.89786e-07 12ZM-1 10V11H1V10H-1ZM10.05 9L-1.89786e-07 9L1.89786e-07 11L10.05 11V9ZM11.03 10.1989C11.1689 9.51468 11.7755 9 12.5 9V7C10.8056 7 9.39437 8.20308 9.07 9.80107L11.03 10.1989ZM12.5 9C13.2245 9 13.8311 9.51468 13.97 10.1989L15.93 9.80106C15.6056 8.20308 14.1944 7 12.5 7V9ZM17 9H14.95V11H17V9ZM18 11V10H16V11H18ZM14.95 12H17V10H14.95V12ZM13.97 10.8011C13.8311 11.4853 13.2245 12 12.5 12V14C14.1944 14 15.6056 12.7969 15.93 11.1989L13.97 10.8011ZM12.5 12C11.7755 12 11.1689 11.4853 11.03 10.8011L9.07 11.1989C9.39437 12.7969 10.8056 14 12.5 14V12Z" fill="#6CC4B3" mask="url(#path-1-inside-1_366_346)"/>
</svg>
