<svg width="100" height="20" viewBox="0 0 100 20" fill="none" xmlns="http://www.w3.org/2000/svg">
<path d="M9.59105 1.25863C9.71977 0.862468 10.2802 0.862468 10.409 1.25863L12.1486 6.61271C12.2062 6.78988 12.3713 6.90983 12.5576 6.90983H18.1872C18.6037 6.90983 18.7769 7.44286 18.4399 7.68771L13.8855 10.9967C13.7348 11.1062 13.6717 11.3003 13.7293 11.4775L15.4689 16.8315C15.5976 17.2277 15.1442 17.5571 14.8072 17.3123L10.2527 14.0033C10.102 13.8938 9.89796 13.8938 9.74725 14.0033L5.1928 17.3123C4.85581 17.5571 4.40238 17.2277 4.5311 16.8315L6.27075 11.4775C6.32831 11.3003 6.26525 11.1062 6.11454 10.9967L1.56009 7.68771C1.22309 7.44286 1.39629 6.90983 1.81284 6.90983H7.44245C7.62873 6.90983 7.79384 6.78988 7.8514 6.61271L9.59105 1.25863Z" fill="#26675B"/>
<path d="M29.591 1.25863C29.7198 0.862468 30.2802 0.862468 30.409 1.25863L32.1486 6.61271C32.2062 6.78988 32.3713 6.90983 32.5576 6.90983H38.1872C38.6037 6.90983 38.7769 7.44286 38.4399 7.68771L33.8855 10.9967C33.7348 11.1062 33.6717 11.3003 33.7293 11.4775L35.4689 16.8315C35.5976 17.2277 35.1442 17.5571 34.8072 17.3123L30.2527 14.0033C30.102 13.8938 29.898 13.8938 29.7473 14.0033L25.1928 17.3123C24.8558 17.5571 24.4024 17.2277 24.5311 16.8315L26.2707 11.4775C26.3283 11.3003 26.2652 11.1062 26.1145 10.9967L21.5601 7.68771C21.2231 7.44286 21.3963 6.90983 21.8128 6.90983H27.4424C27.6287 6.90983 27.7938 6.78988 27.8514 6.61271L29.591 1.25863Z" fill="#26675B"/>
<path d="M49.591 1.25863C49.7198 0.862468 50.2802 0.862468 50.409 1.25863L52.1486 6.61271C52.2062 6.78988 52.3713 6.90983 52.5576 6.90983H58.1872C58.6037 6.90983 58.7769 7.44286 58.4399 7.68771L53.8855 10.9967C53.7348 11.1062 53.6717 11.3003 53.7293 11.4775L55.4689 16.8315C55.5976 17.2277 55.1442 17.5571 54.8072 17.3123L50.2527 14.0033C50.102 13.8938 49.898 13.8938 49.7473 14.0033L45.1928 17.3123C44.8558 17.5571 44.4024 17.2277 44.5311 16.8315L46.2707 11.4775C46.3283 11.3003 46.2652 11.1062 46.1145 10.9967L41.5601 7.68771C41.2231 7.44286 41.3963 6.90983 41.8128 6.90983H47.4424C47.6287 6.90983 47.7938 6.78988 47.8514 6.61271L49.591 1.25863Z" fill="#26675B"/>
<path d="M69.591 1.25863C69.7198 0.862468 70.2802 0.862468 70.409 1.25863L72.1486 6.61271C72.2062 6.78988 72.3713 6.90983 72.5576 6.90983H78.1872C78.6037 6.90983 78.7769 7.44286 78.4399 7.68771L73.8855 10.9967C73.7348 11.1062 73.6717 11.3003 73.7293 11.4775L75.4689 16.8315C75.5976 17.2277 75.1442 17.5571 74.8072 17.3123L70.2527 14.0033C70.102 13.8938 69.898 13.8938 69.7473 14.0033L65.1928 17.3123C64.8558 17.5571 64.4024 17.2277 64.5311 16.8315L66.2707 11.4775C66.3283 11.3003 66.2652 11.1062 66.1145 10.9967L61.5601 7.68771C61.2231 7.44286 61.3963 6.90983 61.8128 6.90983H67.4424C67.6287 6.90983 67.7938 6.78988 67.8514 6.61271L69.591 1.25863Z" fill="#26675B"/>
<path d="M89.591 1.25863C89.7198 0.862468 90.2802 0.862468 90.409 1.25863L92.1486 6.61271C92.2062 6.78988 92.3713 6.90983 92.5576 6.90983H98.1872C98.6037 6.90983 98.7769 7.44286 98.4399 7.68771L93.8855 10.9967C93.7348 11.1062 93.6717 11.3003 93.7293 11.4775L95.4689 16.8315C95.5976 17.2277 95.1442 17.5571 94.8072 17.3123L90.2527 14.0033C90.102 13.8938 89.898 13.8938 89.7473 14.0033L85.1928 17.3123C84.8558 17.5571 84.4024 17.2277 84.5311 16.8315L86.2707 11.4775C86.3283 11.3003 86.2652 11.1062 86.1145 10.9967L81.5601 7.68771C81.2231 7.44286 81.3963 6.90983 81.8128 6.90983H87.4424C87.6287 6.90983 87.7938 6.78988 87.8514 6.61271L89.591 1.25863Z" fill="#D9D9D9"/>
</svg>
