<svg width="107" height="32" viewBox="0 0 107 32" fill="none" xmlns="http://www.w3.org/2000/svg">
<g filter="url(#filter0_d_1767_364)">
<path d="M10.66 12.06V11.76H6.38V12.06C6.68 12.08 7.22 12.1 7.66 13C7.66 13 7.9 13.5 11.32 21.18H11.6L12.52 18.66L10.12 13.3C10.12 13.3 9.5 12.06 10.66 12.06ZM17.78 11.76V12.06C19.64 12.06 19.12 14.1 18.96 14.6L19.22 14.84C20.2 12.12 21.1 12.06 21.52 12.06V11.76H17.78ZM16.04 12.06V11.76H11.74V12.06C12.08 12.08 12.56 12.1 13 13L16.64 21.18H16.9L17.86 18.66L15.46 13.32C15.46 13.32 14.76 12.06 16.04 12.06ZM28.1427 9.94C28.8027 9.94 29.3627 9.42 29.3627 8.76C29.3627 8.1 28.8027 7.56 28.1427 7.56C27.4827 7.56 26.9627 8.1 26.9627 8.76C26.9627 9.42 27.4827 9.94 28.1427 9.94ZM30.2227 20.7C29.5027 20.5 29.4027 19.96 29.4027 18.86V11.58L26.2827 12.26V12.56C27.1027 12.9 27.3027 13.18 27.3027 13.86V18.86C27.3027 19.88 27.2627 20.46 26.5027 20.7V21H30.2227V20.7ZM38.2966 18.88V11.58L35.1766 12.28V12.56C35.9966 12.9 36.1766 13.14 36.1766 13.84V18.88C36.1766 19.9 36.1366 20.48 35.3766 20.7V21H39.1166V20.7C38.4166 20.52 38.2966 19.98 38.2966 18.88ZM44.1166 18.86V14.7C44.1166 12.28 43.0766 11.58 41.4766 11.58C40.5966 11.58 39.6366 12.1 38.9766 12.78L39.2166 13.14C39.4966 12.94 39.8166 12.8 40.1566 12.8C41.3166 12.8 41.9966 13.6 41.9966 14.76V18.86C41.9966 19.88 41.9566 20.5 41.1966 20.72V21H44.9366V20.72C44.2166 20.54 44.1166 19.96 44.1166 18.86ZM51.7677 9.94C52.4277 9.94 52.9877 9.42 52.9877 8.76C52.9877 8.1 52.4277 7.56 51.7677 7.56C51.1077 7.56 50.5877 8.1 50.5877 8.76C50.5877 9.42 51.1077 9.94 51.7677 9.94ZM53.8477 20.7C53.1277 20.5 53.0277 19.96 53.0277 18.86V11.58L49.9077 12.26V12.56C50.7277 12.9 50.9277 13.18 50.9277 13.86V18.86C50.9277 19.88 50.8877 20.46 50.1277 20.7V21H53.8477V20.7ZM61.9216 18.88V11.58L58.8016 12.26V12.56C59.6216 12.9 59.8016 13.24 59.8016 13.94V18.88C59.8016 19.9 59.7616 20.48 59.0016 20.7V21H62.7416V20.7C62.0416 20.5 61.9216 19.98 61.9216 18.88ZM72.8816 18.86V14.7C72.8816 12.28 71.9016 11.58 70.3216 11.58C69.3616 11.58 68.4416 12.18 67.8616 12.94C67.8816 12.96 68.1016 13.2 68.1216 13.22C68.4016 12.98 68.7616 12.8 69.1216 12.8C70.2016 12.8 70.7616 13.48 70.7616 14.76V18.86C70.7616 19.88 70.7216 20.48 69.9616 20.7V21H73.7016V20.7C72.9816 20.52 72.8816 19.96 72.8816 18.86ZM67.4016 18.86V14.78C67.4016 13.02 66.9416 11.58 64.8416 11.58C63.9016 11.58 63.0416 12.18 62.4416 12.92L62.6616 13.22C62.9416 12.98 63.3016 12.8 63.6616 12.8C64.7616 12.8 65.2816 13.48 65.2816 14.76V18.86C65.2816 19.88 65.2416 20.48 64.4816 20.7V21H68.2216V20.7C67.5216 20.52 67.4016 19.96 67.4016 18.86ZM81.288 14.78C81.748 14.44 81.868 13.8 81.528 13.34C81.368 13.1 81.128 12.98 80.868 12.94C80.768 12.92 80.788 12.74 81.088 12.5L80.948 12.22C80.168 12.72 79.928 13.18 79.768 13.44C79.608 13.76 79.628 14.2 79.848 14.54C80.188 15 80.828 15.1 81.288 14.78ZM87.208 20.1C86.268 20.1 86.288 18.78 86.288 18.78V15.58C86.288 13.22 85.628 11.58 83.228 11.58C83.228 11.58 82.528 11.54 81.788 11.8L81.908 12.06C83.208 11.68 84.128 12.76 84.128 14.64V15.84C80.668 16.72 78.988 17.04 78.988 19.14C78.988 21.2 81.268 21.18 81.268 21.18C82.208 21.18 83.028 20.76 83.568 20.28C83.548 20.26 83.368 19.98 83.348 19.94C83.148 20.06 82.888 20.12 82.588 20.12C81.328 20.12 81.148 18.98 81.148 18.68C81.148 17.56 81.988 16.66 84.128 16.16V19.4C84.128 21.22 85.988 21.18 85.988 21.18C87.148 21.18 87.928 20.42 88.088 19.8L87.788 19.68C87.668 20.1 87.208 20.1 87.208 20.1ZM96.7242 20.7C96.0042 20.52 95.9042 19.96 95.9042 18.86V6.16L92.7842 6.8V7.1C93.6042 7.32 93.7842 7.62 93.7842 8.32V18.86C93.7842 19.88 93.7442 20.48 92.9842 20.7V21H96.7242V20.7Z" fill="#B0B0B0"/>
</g>
<defs>
<filter id="filter0_d_1767_364" x="0.379883" y="0.160034" width="106.344" height="31.0599" filterUnits="userSpaceOnUse" color-interpolation-filters="sRGB">
<feFlood flood-opacity="0" result="BackgroundImageFix"/>
<feColorMatrix in="SourceAlpha" type="matrix" values="0 0 0 0 0 0 0 0 0 0 0 0 0 0 0 0 0 0 127 0" result="hardAlpha"/>
<feOffset dx="2" dy="2"/>
<feGaussianBlur stdDeviation="4"/>
<feComposite in2="hardAlpha" operator="out"/>
<feColorMatrix type="matrix" values="0 0 0 0 0.870588 0 0 0 0 0.870588 0 0 0 0 0.870588 0 0 0 0.25 0"/>
<feBlend mode="normal" in2="BackgroundImageFix" result="effect1_dropShadow_1767_364"/>
<feBlend mode="normal" in="SourceGraphic" in2="effect1_dropShadow_1767_364" result="shape"/>
</filter>
</defs>
</svg>
