<svg width="265" height="45" viewBox="0 0 265 45" fill="none" xmlns="http://www.w3.org/2000/svg">
<circle cx="242.5" cy="22.5" r="22.5" fill="#F5F5F5"/>
<circle cx="187.5" cy="22.5" r="22.5" fill="#F5F5F5"/>
<circle cx="132.5" cy="22.5" r="22.5" fill="#F5F5F5"/>
<circle cx="77.5" cy="22.5" r="22.5" fill="#F5F5F5"/>
<circle cx="22.5" cy="22.5" r="22.5" fill="#F5F5F5"/>
<path d="M240.24 20.3906C239.67 20.3906 239.22 20.8906 239.22 21.5006C239.22 22.1106 239.68 22.6106 240.24 22.6106C240.81 22.6106 241.26 22.1106 241.26 21.5006C241.27 20.8906 240.81 20.3906 240.24 20.3906ZM243.89 20.3906C243.32 20.3906 242.87 20.8906 242.87 21.5006C242.87 22.1106 243.33 22.6106 243.89 22.6106C244.46 22.6106 244.91 22.1106 244.91 21.5006C244.91 20.8906 244.46 20.3906 243.89 20.3906Z" fill="black"/>
<path d="M248.75 12H235.35C234.22 12 233.3 12.92 233.3 14.06V27.58C233.3 28.72 234.22 29.64 235.35 29.64H246.69L246.16 27.79L247.44 28.98L248.65 30.1L250.8 32V14.06C250.8 12.92 249.88 12 248.75 12ZM244.89 25.06C244.89 25.06 244.53 24.63 244.23 24.25C245.54 23.88 246.04 23.06 246.04 23.06C245.63 23.33 245.24 23.52 244.89 23.65C244.39 23.86 243.91 24 243.44 24.08C242.48 24.26 241.6 24.21 240.85 24.07C240.28 23.96 239.79 23.8 239.38 23.64C239.15 23.55 238.9 23.44 238.65 23.3C238.62 23.28 238.59 23.27 238.56 23.25C238.54 23.24 238.53 23.23 238.52 23.22C238.34 23.12 238.24 23.05 238.24 23.05C238.24 23.05 238.72 23.85 239.99 24.23C239.69 24.61 239.32 25.06 239.32 25.06C237.11 24.99 236.27 23.54 236.27 23.54C236.27 20.32 237.71 17.71 237.71 17.71C239.15 16.63 240.52 16.66 240.52 16.66L240.62 16.78C238.82 17.3 237.99 18.09 237.99 18.09C237.99 18.09 238.21 17.97 238.58 17.8C239.65 17.33 240.5 17.2 240.85 17.17C240.91 17.16 240.96 17.15 241.02 17.15C241.63 17.07 242.32 17.05 243.04 17.13C243.99 17.24 245.01 17.52 246.05 18.09C246.05 18.09 245.26 17.34 243.56 16.82L243.7 16.66C243.7 16.66 245.07 16.63 246.51 17.71C246.51 17.71 247.95 20.32 247.95 23.54C247.95 23.54 247.1 24.99 244.89 25.06V25.06Z" fill="black"/>
<g clip-path="url(#clip0_1462_2823)">
<path fill-rule="evenodd" clip-rule="evenodd" d="M187 12.416C184.626 12.4172 182.33 13.2581 180.523 14.7881C178.715 16.3182 177.513 18.4377 177.133 20.7677C176.753 23.0977 177.218 25.4862 178.447 27.5062C179.675 29.5261 181.586 31.0458 183.838 31.7935C184.334 31.8857 184.521 31.5778 184.521 31.316C184.521 31.0542 184.512 30.2952 184.508 29.4654C181.726 30.0663 181.138 28.2914 181.138 28.2914C180.685 27.1389 180.029 26.8359 180.029 26.8359C179.122 26.2201 180.097 26.2317 180.097 26.2317C181.102 26.3025 181.63 27.2574 181.63 27.2574C182.521 28.7771 183.97 28.3375 184.54 28.0807C184.629 27.4369 184.889 26.9989 185.176 26.7503C182.953 26.5 180.619 25.6472 180.619 21.8372C180.605 20.8491 180.973 19.8936 181.648 19.1683C181.546 18.918 181.203 17.907 181.746 16.5339C181.746 16.5339 182.586 16.2671 184.497 17.553C186.136 17.1074 187.865 17.1074 189.504 17.553C191.413 16.2671 192.251 16.5339 192.251 16.5339C192.796 17.9038 192.453 18.9147 192.351 19.1683C193.028 19.8937 193.397 20.8509 193.382 21.8405C193.382 25.6587 191.042 26.5 188.817 26.7454C189.175 27.0549 189.494 27.6592 189.494 28.5878C189.494 29.9181 189.483 30.9884 189.483 31.316C189.483 31.5811 189.663 31.8906 190.17 31.7935C192.422 31.0457 194.333 29.5258 195.561 27.5055C196.789 25.4852 197.255 23.0963 196.874 20.7661C196.493 18.4359 195.291 16.3163 193.483 14.7865C191.675 13.2567 189.378 12.4165 187.004 12.416H187Z" fill="black"/>
<path d="M180.787 26.6925C180.765 26.7419 180.686 26.7568 180.621 26.7222C180.557 26.6876 180.509 26.6234 180.532 26.5724C180.555 26.5213 180.633 26.5081 180.697 26.5427C180.762 26.5773 180.812 26.6431 180.787 26.6925Z" fill="black"/>
<path d="M181.193 27.1433C181.159 27.1604 181.119 27.1652 181.082 27.1568C181.044 27.1484 181.011 27.1273 180.988 27.0972C180.923 27.028 180.91 26.9325 180.959 26.8897C181.009 26.8469 181.098 26.8667 181.163 26.9358C181.228 27.005 181.243 27.1005 181.193 27.1433Z" fill="black"/>
<path d="M181.587 27.7138C181.525 27.7566 181.421 27.7138 181.363 27.6282C181.347 27.6129 181.334 27.5944 181.326 27.5741C181.317 27.5537 181.312 27.5318 181.312 27.5097C181.312 27.4875 181.317 27.4656 181.326 27.4453C181.334 27.4249 181.347 27.4065 181.363 27.3911C181.424 27.35 181.529 27.3911 181.587 27.4751C181.645 27.5591 181.646 27.671 181.587 27.7138V27.7138Z" fill="black"/>
<path d="M182.122 28.2664C182.067 28.3273 181.956 28.3108 181.865 28.2285C181.774 28.1462 181.752 28.0342 181.807 27.975C181.862 27.9157 181.973 27.9322 182.067 28.0128C182.161 28.0935 182.18 28.2071 182.122 28.2664V28.2664Z" fill="black"/>
<path d="M182.872 28.5893C182.847 28.6667 182.735 28.7013 182.622 28.6684C182.509 28.6354 182.435 28.5432 182.456 28.4642C182.478 28.3852 182.592 28.349 182.706 28.3852C182.821 28.4214 182.894 28.5087 182.872 28.5893Z" fill="black"/>
<path d="M183.69 28.6469C183.69 28.7276 183.597 28.7967 183.478 28.7984C183.358 28.8 183.261 28.7341 183.261 28.6535C183.261 28.5728 183.353 28.5036 183.473 28.502C183.592 28.5003 183.69 28.5646 183.69 28.6469Z" fill="black"/>
<path d="M184.452 28.5199C184.467 28.6006 184.384 28.6846 184.265 28.7043C184.145 28.7241 184.041 28.6763 184.026 28.5973C184.011 28.5183 184.097 28.4327 184.213 28.4112C184.329 28.3898 184.437 28.4392 184.452 28.5199Z" fill="black"/>
</g>
<g clip-path="url(#clip1_1462_2823)">
<path d="M142.602 18.1551C142.489 17.7296 142.266 17.3413 141.956 17.029C141.645 16.7167 141.258 16.4913 140.834 16.3755C139.27 15.9551 133.02 15.9551 133.02 15.9551C133.02 15.9551 126.77 15.9551 125.206 16.3755C124.782 16.4913 124.395 16.7167 124.084 17.029C123.774 17.3413 123.551 17.7296 123.438 18.1551C123.02 19.7255 123.02 23.0005 123.02 23.0005C123.02 23.0005 123.02 26.2755 123.438 27.846C123.551 28.2715 123.774 28.6598 124.084 28.9721C124.395 29.2844 124.782 29.5097 125.206 29.6255C126.77 30.046 133.02 30.046 133.02 30.046C133.02 30.046 139.27 30.046 140.834 29.6255C141.258 29.5097 141.645 29.2844 141.956 28.9721C142.266 28.6598 142.489 28.2715 142.602 27.846C143.02 26.2755 143.02 23.0005 143.02 23.0005C143.02 23.0005 143.02 19.7255 142.602 18.1551Z" fill="black"/>
<path d="M130.975 25.9731V20.0254L136.202 22.9993L130.975 25.9731Z" fill="#FEFEFE"/>
</g>
<g clip-path="url(#clip2_1462_2823)">
<path d="M32 22C32 16.4771 27.5229 12 22 12C16.4771 12 12 16.4771 12 22C12 26.9912 15.6568 31.1283 20.4375 31.8785V24.8906H17.8984V22H20.4375V19.7969C20.4375 17.2906 21.9305 15.9063 24.2146 15.9063C25.3084 15.9063 26.4531 16.1016 26.4531 16.1016V18.5625H25.1922C23.95 18.5625 23.5625 19.3334 23.5625 20.125V22H26.3359L25.8926 24.8906H23.5625V31.8785C28.3432 31.1283 32 26.9912 32 22Z" fill="black"/>
</g>
<g clip-path="url(#clip3_1462_2823)">
<path d="M77 13.8008C79.6719 13.8008 79.9883 13.8125 81.0391 13.8594C82.0156 13.9023 82.543 14.0664 82.8945 14.2031C83.3594 14.3828 83.6953 14.6016 84.043 14.9492C84.3945 15.3008 84.6094 15.6328 84.7891 16.0977C84.9258 16.4492 85.0898 16.9805 85.1328 17.9531C85.1797 19.0078 85.1914 19.3242 85.1914 21.9922C85.1914 24.6641 85.1797 24.9805 85.1328 26.0313C85.0898 27.0078 84.9258 27.5352 84.7891 27.8867C84.6094 28.3516 84.3906 28.6875 84.043 29.0352C83.6914 29.3867 83.3594 29.6016 82.8945 29.7813C82.543 29.918 82.0117 30.082 81.0391 30.125C79.9844 30.1719 79.668 30.1836 77 30.1836C74.3281 30.1836 74.0117 30.1719 72.9609 30.125C71.9844 30.082 71.457 29.918 71.1055 29.7813C70.6406 29.6016 70.3047 29.3828 69.957 29.0352C69.6055 28.6836 69.3906 28.3516 69.2109 27.8867C69.0742 27.5352 68.9102 27.0039 68.8672 26.0313C68.8203 24.9766 68.8086 24.6602 68.8086 21.9922C68.8086 19.3203 68.8203 19.0039 68.8672 17.9531C68.9102 16.9766 69.0742 16.4492 69.2109 16.0977C69.3906 15.6328 69.6094 15.2969 69.957 14.9492C70.3086 14.5977 70.6406 14.3828 71.1055 14.2031C71.457 14.0664 71.9883 13.9023 72.9609 13.8594C74.0117 13.8125 74.3281 13.8008 77 13.8008ZM77 12C74.2852 12 73.9453 12.0117 72.8789 12.0586C71.8164 12.1055 71.0859 12.2773 70.4531 12.5234C69.793 12.7812 69.2344 13.1211 68.6797 13.6797C68.1211 14.2344 67.7813 14.793 67.5234 15.4492C67.2773 16.0859 67.1055 16.8125 67.0586 17.875C67.0117 18.9453 67 19.2852 67 22C67 24.7148 67.0117 25.0547 67.0586 26.1211C67.1055 27.1836 67.2773 27.9141 67.5234 28.5469C67.7813 29.207 68.1211 29.7656 68.6797 30.3203C69.2344 30.875 69.793 31.2188 70.4492 31.4727C71.0859 31.7188 71.8125 31.8906 72.875 31.9375C73.9414 31.9844 74.2813 31.9961 76.9961 31.9961C79.7109 31.9961 80.0508 31.9844 81.1172 31.9375C82.1797 31.8906 82.9102 31.7188 83.543 31.4727C84.1992 31.2188 84.7578 30.875 85.3125 30.3203C85.8672 29.7656 86.2109 29.207 86.4648 28.5508C86.7109 27.9141 86.8828 27.1875 86.9297 26.125C86.9766 25.0586 86.9883 24.7188 86.9883 22.0039C86.9883 19.2891 86.9766 18.9492 86.9297 17.8828C86.8828 16.8203 86.7109 16.0898 86.4648 15.457C86.2188 14.793 85.8789 14.2344 85.3203 13.6797C84.7656 13.125 84.207 12.7813 83.5508 12.5273C82.9141 12.2812 82.1875 12.1094 81.125 12.0625C80.0547 12.0117 79.7148 12 77 12Z" fill="black"/>
<path d="M77 16.8633C74.1641 16.8633 71.8633 19.1641 71.8633 22C71.8633 24.8359 74.1641 27.1367 77 27.1367C79.8359 27.1367 82.1367 24.8359 82.1367 22C82.1367 19.1641 79.8359 16.8633 77 16.8633ZM77 25.332C75.1602 25.332 73.668 23.8398 73.668 22C73.668 20.1602 75.1602 18.668 77 18.668C78.8398 18.668 80.332 20.1602 80.332 22C80.332 23.8398 78.8398 25.332 77 25.332Z" fill="black"/>
<path d="M83.5391 16.6602C83.5391 17.3242 83 17.8594 82.3398 17.8594C81.6758 17.8594 81.1406 17.3203 81.1406 16.6602C81.1406 15.9961 81.6797 15.4609 82.3398 15.4609C83 15.4609 83.5391 16 83.5391 16.6602Z" fill="black"/>
</g>
<defs>
<clipPath id="clip0_1462_2823">
<rect width="20" height="20" fill="white" transform="translate(177 12)"/>
</clipPath>
<clipPath id="clip1_1462_2823">
<rect width="20" height="20" fill="white" transform="translate(123 13)"/>
</clipPath>
<clipPath id="clip2_1462_2823">
<rect width="20" height="20" fill="white" transform="translate(12 12)"/>
</clipPath>
<clipPath id="clip3_1462_2823">
<rect width="20" height="20" fill="white" transform="translate(67 12)"/>
</clipPath>
</defs>
</svg>
