<svg width="164" height="24" viewBox="0 0 164 24" fill="none" xmlns="http://www.w3.org/2000/svg">
<path d="M8 20C12.4183 20 16 16.4183 16 12C16 7.58172 12.4183 4 8 4C3.58172 4 0 7.58172 0 12C0 16.4183 3.58172 20 8 20Z" fill="#FF3344"/>
<path d="M44 20C48.4183 20 52 16.4183 52 12C52 7.58172 48.4183 4 44 4C39.5817 4 36 7.58172 36 12C36 16.4183 39.5817 20 44 20Z" fill="#FF3344"/>
<path d="M80 20C84.4183 20 88 16.4183 88 12C88 7.58172 84.4183 4 80 4C75.5817 4 72 7.58172 72 12C72 16.4183 75.5817 20 80 20Z" fill="#FF3344"/>
<path d="M116 20C120.418 20 124 16.4183 124 12C124 7.58172 120.418 4 116 4C111.582 4 108 7.58172 108 12C108 16.4183 111.582 20 116 20Z" fill="#FF3344"/>
<path d="M152 20C156.418 20 160 16.4183 160 12C160 7.58172 156.418 4 152 4C147.582 4 144 7.58172 144 12C144 16.4183 147.582 20 152 20Z" stroke="#FF3344" stroke-width="7"/>
</svg>
