<svg width="60" height="60" viewBox="0 0 60 60" fill="none" xmlns="http://www.w3.org/2000/svg">
<path d="M25.5178 37.5H19.6875C19.4137 37.5 19.1891 37.4122 19.0134 37.2366C18.8378 37.0609 18.75 36.8363 18.75 36.5625V20.625H16.875C16.6012 20.625 16.3766 20.5372 16.2009 20.3616C16.0253 20.1859 15.9375 19.9613 15.9375 19.6875C15.9375 19.4137 16.0253 19.1891 16.2009 19.0134C16.3766 18.8378 16.6012 18.75 16.875 18.75H43.125C43.3988 18.75 43.6234 18.8378 43.7991 19.0134C43.9747 19.1891 44.0625 19.4137 44.0625 19.6875C44.0625 19.9613 43.9747 20.1859 43.7991 20.3616C43.6234 20.5372 43.3988 20.625 43.125 20.625H41.25V36.5625C41.25 36.8363 41.1622 37.0609 40.9866 37.2366C40.8109 37.4122 40.5863 37.5 40.3125 37.5H34.4822L37.7344 43.125H35.5659L32.3138 37.5H27.6844L24.4322 43.125H22.2638L25.5178 37.5ZM39.375 20.625H20.625V35.625H39.375V20.625ZM25.0491 30.6741C24.8534 30.8497 24.6287 30.9375 24.375 30.9375C24.1213 30.9375 23.9016 30.8447 23.7159 30.6591C23.5303 30.4734 23.4375 30.2537 23.4375 30C23.4375 29.7463 23.5253 29.5216 23.7009 29.3259L28.0369 25.0191L31.6988 27.7734L34.8919 23.7891C35.1263 23.4959 35.4241 23.3738 35.7853 23.4225C36.1466 23.4713 36.3906 23.6666 36.5175 24.0084C36.6444 24.3503 36.5906 24.6678 36.3563 24.9609L32.0494 30.3516L28.2113 27.48L25.0491 30.6741Z" fill="#08080A" fill-opacity="0.96"/>
<circle cx="30" cy="30" r="30" fill="#4857EC" fill-opacity="0.2"/>
</svg>
