<svg width="60" height="60" viewBox="0 0 60 60" fill="none" xmlns="http://www.w3.org/2000/svg">
<path d="M20.1271 40.0791L24.0825 38.7609L24.7856 39.0834C26.3875 39.9041 28.1259 40.3144 30.0009 40.3144C33.1846 40.2169 35.8359 39.1769 37.9546 37.1944C40.0734 35.2119 41.1721 32.8144 41.2509 30.0019C41.1728 27.1894 40.074 24.7919 37.9546 22.8094C35.8353 20.8269 33.184 19.7869 30.0009 19.6894C26.8171 19.7869 24.1659 20.8269 22.0471 22.8094C19.9284 24.7919 18.8296 27.1894 18.7509 30.0019C18.7509 31.0175 18.9268 32.0234 19.2787 33.0197C19.6306 34.0159 20.1481 34.9534 20.8312 35.8322L21.4762 36.6816L20.1271 40.0791ZM18.779 42.4819C18.4078 42.5994 18.0903 42.5163 17.8265 42.2325C17.5628 41.9488 17.4993 41.6216 17.6362 41.2509L19.3359 36.9731C18.5546 35.9381 17.949 34.8297 17.519 33.6478C17.089 32.4659 16.874 31.25 16.874 30C16.9521 26.7775 18.2021 23.97 20.624 21.5775C23.0459 19.185 26.1709 17.93 29.999 17.8125C33.8271 17.93 36.9521 19.185 39.374 21.5775C41.7959 23.97 43.0459 26.7775 43.124 30C43.0459 33.2225 41.7959 36.03 39.374 38.4225C36.9521 40.815 33.8271 42.07 29.999 42.1875C27.8703 42.1875 25.8487 41.7188 23.9343 40.7813L18.779 42.4819ZM30 31.4953C29.7262 31.4953 29.4771 31.4319 29.2528 31.305C29.0284 31.1781 28.8478 30.9925 28.7109 30.7481C28.574 30.5038 28.5056 30.2547 28.5056 30.0009C28.5056 29.7472 28.574 29.4981 28.7109 29.2538C28.8478 29.0094 29.0284 28.8238 29.2528 28.6969C29.4771 28.57 29.7262 28.5066 30 28.5066C30.43 28.5066 30.7865 28.6481 31.0696 28.9313C31.3528 29.2144 31.4943 29.5709 31.4943 30.0009C31.4943 30.4309 31.3528 30.7875 31.0696 31.0706C30.7865 31.3538 30.43 31.4953 30 31.4953V31.4953ZM35.625 31.4953C35.3512 31.4953 35.1021 31.4319 34.8778 31.305C34.6534 31.1781 34.4728 30.9925 34.3359 30.7481C34.199 30.5038 34.1306 30.2547 34.1306 30.0009C34.1306 29.7472 34.199 29.4981 34.3359 29.2538C34.4728 29.0094 34.6534 28.8238 34.8778 28.6969C35.1021 28.57 35.3512 28.5066 35.625 28.5066C36.055 28.5066 36.4115 28.6481 36.6946 28.9313C36.9778 29.2144 37.1193 29.5709 37.1193 30.0009C37.1193 30.4309 36.9778 30.7875 36.6946 31.0706C36.4115 31.3538 36.055 31.4953 35.625 31.4953V31.4953ZM24.375 31.4953C24.1012 31.4953 23.8521 31.4319 23.6278 31.305C23.4034 31.1781 23.2228 30.9925 23.0859 30.7481C22.949 30.5038 22.8806 30.2547 22.8806 30.0009C22.8806 29.7472 22.949 29.4981 23.0859 29.2538C23.2228 29.0094 23.4034 28.8238 23.6278 28.6969C23.8521 28.57 24.1012 28.5066 24.375 28.5066C24.805 28.5066 25.1615 28.6481 25.4446 28.9313C25.7278 29.2144 25.8693 29.5709 25.8693 30.0009C25.8693 30.4309 25.7278 30.7875 25.4446 31.0706C25.1615 31.3538 24.805 31.4953 24.375 31.4953V31.4953Z" fill="#08080A" fill-opacity="0.96"/>
<circle cx="30" cy="30" r="30" fill="#48EC9D" fill-opacity="0.2"/>
</svg>
