<svg width="54" height="54" viewBox="0 0 54 54" fill="none" xmlns="http://www.w3.org/2000/svg">
<circle cx="27" cy="27" r="27" fill="#FFD6D6" fill-opacity="0.5"/>
<path d="M31.08 31.4234C29.8822 32.5321 28.258 33.1549 26.5643 33.1549C24.8707 33.1549 23.2464 32.5321 22.0486 31.4234M21.774 24.2851H21.79M31.3547 24.2851H31.3706M40.9353 27.2422C40.9353 28.9896 40.5636 30.7199 39.8414 32.3344C39.1192 33.9488 38.0606 35.4157 36.7261 36.6513C35.3917 37.887 33.8074 38.8671 32.0639 39.5359C30.3203 40.2046 28.4515 40.5488 26.5643 40.5488C24.6771 40.5488 22.8084 40.2046 21.0648 39.5359C19.3212 38.8671 17.737 37.887 16.4025 36.6513C15.0681 35.4157 14.0095 33.9488 13.2873 32.3344C12.5651 30.7199 12.1934 28.9896 12.1934 27.2422C12.1934 23.713 13.7074 20.3284 16.4025 17.833C19.0976 15.3375 22.7529 13.9355 26.5643 13.9355C30.3757 13.9355 34.0311 15.3375 36.7261 17.833C39.4212 20.3284 40.9353 23.713 40.9353 27.2422Z" stroke="#C66464" stroke-width="3" stroke-linecap="round" stroke-linejoin="round"/>
</svg>
