<svg width="60" height="60" viewBox="0 0 60 60" fill="none" xmlns="http://www.w3.org/2000/svg">
<path d="M30 30C31.6019 29.9606 32.93 29.4138 33.9844 28.3594C35.0388 27.305 35.5856 25.9769 35.625 24.375C35.5856 22.7731 35.0388 21.445 33.9844 20.3906C32.93 19.3362 31.6019 18.7894 30 18.75C28.3981 18.7894 27.07 19.3362 26.0156 20.3906C24.9612 21.445 24.4144 22.7731 24.375 24.375C24.4144 25.9769 24.9612 27.305 26.0156 28.3594C27.07 29.4138 28.3981 29.9606 30 30ZM30 31.875C27.8713 31.8162 26.1037 31.0838 24.6975 29.6775C23.2912 28.2713 22.5588 26.5037 22.5 24.375C22.5588 22.2463 23.2912 20.4787 24.6975 19.0725C26.1037 17.6662 27.8713 16.9338 30 16.875C32.1287 16.9338 33.8963 17.6662 35.3025 19.0725C36.7088 20.4787 37.4412 22.2463 37.5 24.375C37.4412 26.5037 36.7088 28.2713 35.3025 29.6775C33.8963 31.0838 32.1287 31.8162 30 31.875ZM30 30C30.2737 30 30.4984 30.0878 30.6741 30.2634C30.8497 30.4391 30.9375 30.6638 30.9375 30.9375V38.4375C30.9375 38.7112 30.8497 38.9359 30.6741 39.1116C30.4984 39.2872 30.2737 39.375 30 39.375C29.7263 39.375 29.5016 39.2872 29.3259 39.1116C29.1503 38.9359 29.0625 38.7112 29.0625 38.4375V30.9375C29.0625 30.6638 29.1503 30.4391 29.3259 30.2634C29.5016 30.0878 29.7263 30 30 30V30ZM26.25 34.0134V35.9175C24.5506 36.2106 23.1931 36.5962 22.1775 37.0744C21.1619 37.5525 20.6444 38.0066 20.625 38.4366C20.6838 39.0422 21.5872 39.6525 23.3353 40.2675C25.0834 40.8825 27.305 41.2097 30 41.2491C32.6956 41.2097 34.9172 40.8825 36.6647 40.2675C38.4122 39.6525 39.3156 39.0422 39.375 38.4366C39.3556 38.0066 38.8381 37.5525 37.8225 37.0744C36.8069 36.5962 35.4494 36.2106 33.75 35.9175V34.0134C35.9769 34.3453 37.7738 34.9069 39.1406 35.6981C40.5075 36.4894 41.2106 37.4025 41.25 38.4375C41.1719 39.7656 40.0731 40.8691 37.9537 41.7478C35.8344 42.6266 33.1831 43.0856 30 43.125C26.8163 43.0856 24.165 42.6266 22.0462 41.7478C19.9275 40.8691 18.8287 39.7656 18.75 38.4375C18.7894 37.4025 19.4925 36.4894 20.8594 35.6981C22.2262 34.9069 24.0231 34.3453 26.25 34.0134Z" fill="#08080A" fill-opacity="0.96"/>
<circle cx="30" cy="30" r="30" fill="#8DFF33" fill-opacity="0.2"/>
</svg>
