<svg width="60" height="60" viewBox="0 0 60 60" fill="none" xmlns="http://www.w3.org/2000/svg">
<path d="M18.75 26.25V39.375H41.25V26.25H18.75ZM17.8125 24.375H42.1875C42.4612 24.375 42.6859 24.4628 42.8616 24.6384C43.0372 24.8141 43.125 25.0388 43.125 25.3125V40.3125C43.125 40.5862 43.0372 40.8109 42.8616 40.9866C42.6859 41.1622 42.4612 41.25 42.1875 41.25H17.8125C17.5388 41.25 17.3141 41.1622 17.1384 40.9866C16.9628 40.8109 16.875 40.5862 16.875 40.3125V25.3125C16.875 25.0388 16.9628 24.8141 17.1384 24.6384C17.3141 24.4628 17.5388 24.375 17.8125 24.375ZM19.6875 20.625H40.3125V22.5H19.6875V20.625ZM22.5 16.875H37.5V18.75H22.5V16.875Z" fill="#08080A" fill-opacity="0.96"/>
<circle cx="30" cy="30" r="30" fill="#F76D6D" fill-opacity="0.2"/>
</svg>
