<svg width="351" height="350" viewBox="0 0 351 350" fill="none" xmlns="http://www.w3.org/2000/svg">
<path d="M167.916 60.4974C168.318 60.1649 168.353 59.2375 168.423 58.3275C168.983 47.8941 169.018 37.4393 168.528 27.0024C168.301 24.6749 168.213 24.5874 165.728 24.3949C159.008 23.8174 130.203 24.3949 128.873 25.6199C127.963 26.4949 128.418 57.3475 129.241 60.13C129.302 60.2587 129.396 60.3697 129.512 60.4523C129.628 60.535 129.764 60.5867 129.906 60.6025C132.128 60.97 166.008 62.0724 167.916 60.4974ZM129.258 26.0049C130.746 25.0424 163.593 24.8674 167.076 25.8299C167.968 30.0999 167.443 56.8925 166.936 59.535C160.758 60.375 133.791 59.815 130.308 59.4475C129.358 48.3269 129.008 37.1632 129.258 26.0049V26.0049ZM169.526 70.4549C169.499 70.2662 169.421 70.0882 169.301 69.9402C169.181 69.7922 169.022 69.6798 168.843 69.6149C165.833 68.5299 131.481 69.2474 130.116 70.5599C129.258 71.3649 129.573 102.06 130.466 105.07C130.527 105.199 130.621 105.31 130.737 105.392C130.853 105.475 130.989 105.527 131.131 105.542C134.001 106.015 164.521 106.75 168.546 105.7C169.141 105.542 169.333 105.315 169.438 104.93C170.138 102.287 170.436 74.0249 169.526 70.4549V70.4549ZM168.161 104.457C161.966 105.297 135.138 104.772 131.533 104.457C130.711 100.345 130.046 73.57 130.483 71.015C132.041 69.965 165.098 69.9475 168.301 70.8225C169.123 74.7075 168.686 101.5 168.161 104.457V104.457ZM214.886 60.1124C215.271 59.7974 215.306 58.8525 215.393 57.9425C215.918 47.5074 215.918 37.0525 215.393 26.6174C215.166 24.2899 215.061 24.2199 212.611 24.0099C205.873 23.4499 177.086 24.0099 175.756 25.2349C174.846 26.0924 175.283 56.9624 176.123 59.7449C176.174 59.8779 176.262 59.9934 176.377 60.0772C176.492 60.1611 176.629 60.2098 176.771 60.2174C179.186 60.6024 212.961 61.6874 214.886 60.1124ZM176.228 25.6199C179.728 24.5524 210.913 24.5699 214.028 25.4449C214.851 29.3649 214.483 56.0874 213.888 59.1499C207.693 59.9899 180.848 59.4474 177.261 59.1499C176.308 48.0003 175.963 36.8071 176.228 25.6199V25.6199ZM64.0357 128.52C64.2807 129.202 65.1907 129.5 65.9432 129.675C72.3482 131.232 95.8682 130.392 103.131 129.01C103.901 128.87 105.441 128.59 105.861 127.942C107.471 125.352 106.823 83.72 104.898 81.41C102.973 79.1 69.1457 79.5024 66.1707 81.7774C63.9307 83.5099 63.4057 126.7 64.0357 128.52V128.52ZM66.9232 82.67C69.7582 80.6925 103.131 80.1149 104.478 81.7424C106.228 83.8424 106.018 124.775 104.811 127.242C101.538 128.992 69.4607 130.095 65.3132 128.082C64.7532 127.75 65.2782 86.2575 66.9232 82.67ZM21.2657 140.927C21.4048 141.136 21.5918 141.308 21.8109 141.43C22.0301 141.552 22.2751 141.619 22.5257 141.627C28.815 142.141 35.1395 142.035 41.4082 141.312C41.9808 141.29 42.5318 141.088 42.9832 140.735C43.9282 139.492 43.4382 122.08 42.3707 121.03C41.3032 119.98 24.2232 119.927 22.5082 121.03C22.2462 121.254 22.0725 121.564 22.0182 121.905C21.2273 128.213 20.9755 134.577 21.2657 140.927V140.927ZM41.9682 140C38.8601 140.433 35.7263 140.655 32.5882 140.665C32.8225 140.189 33.0854 139.727 33.3757 139.282C34.4147 137.923 35.7678 136.835 37.3192 136.113C38.8705 135.39 40.5738 135.055 42.2832 135.135C42.2758 136.761 42.1706 138.386 41.9682 140V140ZM23.2607 121.957C25.3607 121.135 41.4782 120.907 42.0032 121.415C42.1616 121.944 42.2556 122.491 42.2832 123.042C39.6057 123.392 39.1857 128.45 39.1157 131.145C38.0305 129.385 36.826 127.701 35.5107 126.105C35.0501 125.736 34.5037 125.49 33.9224 125.389C33.3411 125.288 32.7437 125.336 32.1857 125.527C30.9082 126.087 31.1532 127.662 31.3282 128.905C31.7776 130.496 32.4119 132.029 33.2182 133.472C32.1682 132.632 27.9682 129.237 26.7782 129.027C25.5882 128.817 24.4332 128.887 23.8382 129.937C22.0882 133.017 26.3057 138.127 28.8082 140.63C26.7027 140.657 24.5977 140.54 22.5082 140.28C22.2992 134.162 22.5507 128.037 23.2607 121.957V121.957Z" fill="black"/>
<path d="M15.0357 147.368C15.2807 147.945 16.0857 148.155 16.7857 148.278C22.0357 149.363 40.9357 148.75 46.7982 147.805C47.4632 147.683 48.7232 147.49 49.0907 147C50.4557 145.145 49.8782 116.165 48.2857 114.485C46.9382 113.085 19.4632 112.963 16.8907 114.643C16.552 114.968 16.3357 115.401 16.2782 115.868C14.9307 121.153 14.5107 146.073 15.0357 147.368V147.368ZM17.5557 115.605C19.9707 114.292 46.7632 113.855 47.8307 114.87C48.8982 115.885 49.0557 143.273 48.0407 146.213C44.6632 147.298 23.8732 148.173 16.2782 146.843C15.9282 145.653 16.2432 119.35 17.5557 115.605V115.605ZM281.613 111.65C282.293 112.427 283.017 113.163 283.783 113.855C283.801 113.885 283.825 113.91 283.853 113.93C283.882 113.95 283.914 113.964 283.948 113.97C283.982 113.976 284.017 113.976 284.051 113.967C284.084 113.959 284.116 113.944 284.143 113.923C284.171 113.902 284.193 113.875 284.21 113.845C284.226 113.814 284.236 113.78 284.238 113.746C284.24 113.711 284.235 113.677 284.223 113.644C284.211 113.612 284.192 113.582 284.168 113.558C282.819 110.913 280.915 108.591 278.586 106.75C278.542 106.701 278.48 106.672 278.414 106.669C278.349 106.665 278.284 106.688 278.236 106.733C278.187 106.777 278.158 106.838 278.154 106.904C278.151 106.97 278.174 107.034 278.218 107.083C279.2 108.711 280.337 110.24 281.613 111.65V111.65ZM263.851 118.213C264.546 115.555 264.659 112.78 264.183 110.075C264.183 110.01 264.157 109.948 264.111 109.902C264.066 109.856 264.003 109.83 263.938 109.83C263.873 109.83 263.811 109.856 263.765 109.902C263.719 109.948 263.693 110.01 263.693 110.075C263.471 111.089 263.325 112.119 263.256 113.155C263.073 114.827 263.108 116.515 263.361 118.178C263.326 118.51 263.816 118.545 263.851 118.213ZM241.048 116.235C241.836 115.096 242.499 113.876 243.026 112.595C243.625 111.336 244.066 110.008 244.338 108.64C244.33 108.597 244.311 108.558 244.283 108.525C244.255 108.492 244.219 108.467 244.178 108.453C244.137 108.439 244.093 108.435 244.05 108.444C244.008 108.452 243.968 108.471 243.936 108.5C243.761 108.78 243.218 109.585 242.886 110.25C241.856 112.096 241.101 114.083 240.646 116.148C240.615 116.179 240.592 116.218 240.581 116.26C240.571 116.303 240.571 116.348 240.584 116.39C240.596 116.432 240.62 116.47 240.652 116.5C240.684 116.53 240.724 116.551 240.767 116.56C240.81 116.57 240.855 116.567 240.896 116.553C240.938 116.539 240.975 116.515 241.004 116.481C241.033 116.448 241.052 116.408 241.06 116.364C241.068 116.321 241.064 116.276 241.048 116.235V116.235ZM132.671 236.95C141.928 237.545 142.051 227.535 132.671 229.127C126.686 229.442 128.523 236.635 132.671 236.95ZM132.671 229.653C140.493 229.25 139.863 236.058 132.671 235.62C130.186 235.498 127.998 230.44 132.741 229.653H132.671ZM166.516 231.525C175.808 232.12 175.896 222.11 166.516 223.703C160.601 224 162.386 231.21 166.516 231.525ZM166.516 224.228C174.338 223.825 173.726 230.632 166.516 230.195C164.066 230.072 161.861 225.015 166.586 224.228H166.516ZM186.396 235.795C195.671 236.39 195.776 226.38 186.396 227.955C180.463 228.287 182.248 235.48 186.396 235.795ZM186.396 228.498C194.218 228.095 193.606 234.903 186.396 234.465C183.946 234.343 181.723 229.25 186.466 228.498H186.396ZM191.803 221.48C201.061 222.075 201.201 212.065 191.803 213.657C185.871 213.972 187.673 221.183 191.803 221.48ZM191.803 214.2C199.626 213.798 198.996 220.588 191.803 220.168C189.353 220.028 187.131 214.97 191.873 214.2H191.803ZM122.013 199.78C124.414 200.36 126.942 200.075 129.153 198.975C132.653 197.085 132.811 192.78 130.746 189.42C127.543 184.17 120.876 184.712 118.496 188.475C117.476 190.287 117.135 192.402 117.533 194.443C117.77 195.638 118.304 196.754 119.087 197.687C119.871 198.62 120.877 199.34 122.013 199.78ZM118.846 194.25C118.489 192.518 118.73 190.717 119.528 189.14C120.368 187.935 121.599 187.057 123.011 186.655C124.424 186.254 125.932 186.352 127.281 186.935C130.886 188.965 132.793 195.79 128.541 197.873C126.646 198.779 124.502 199.025 122.451 198.573C121.54 198.205 120.734 197.619 120.105 196.864C119.476 196.11 119.043 195.212 118.846 194.25V194.25Z" fill="black"/>
<path d="M122.521 189.857C122.311 189.507 121.191 189.192 121.278 190.26C121.366 191.327 123.186 190.925 122.521 189.857ZM126.423 189.892C126.808 189.28 125.286 188.142 125.128 189.595C125.076 190.067 125.741 190.925 126.423 189.892ZM122.066 194.25C121.418 194.687 123.431 196.7 125.916 195.58C126.298 195.423 126.63 195.164 126.874 194.83C127.118 194.496 127.265 194.102 127.298 193.69C127.309 193.657 127.312 193.622 127.309 193.587C127.306 193.552 127.296 193.518 127.28 193.487C127.263 193.457 127.241 193.429 127.214 193.407C127.187 193.385 127.157 193.368 127.123 193.357C127.09 193.347 127.055 193.343 127.02 193.347C126.985 193.35 126.952 193.36 126.921 193.376C126.89 193.392 126.862 193.415 126.84 193.441C126.818 193.468 126.801 193.499 126.791 193.532C126.193 194.02 125.482 194.349 124.724 194.489C123.965 194.63 123.184 194.578 122.451 194.337C122.408 194.278 122.346 194.237 122.275 194.221C122.204 194.205 122.129 194.215 122.066 194.25V194.25ZM143.188 203.245C144.781 203.91 152.323 203.717 153.566 202.142C153.881 201.757 153.671 201.372 153.443 200.935C152.673 199.465 148.386 192.29 146.846 192.552C145.306 192.815 143.766 196.927 143.346 198.275C142.926 199.622 141.911 202.702 143.188 203.245V203.245ZM144.938 196.56C145.166 195.877 146.146 193.217 146.846 193.06C147.546 192.902 152.096 201.285 152.201 201.46C149.434 202.19 146.555 202.392 143.713 202.055C143.881 200.171 144.317 198.321 145.008 196.56H144.938ZM188.618 112.175C188.592 112.015 188.51 111.869 188.387 111.764C188.263 111.659 188.107 111.601 187.944 111.601C187.782 111.601 187.625 111.659 187.502 111.764C187.379 111.869 187.297 112.015 187.271 112.175C187.288 112.585 187.359 112.991 187.481 113.382C187.495 113.479 187.53 113.572 187.583 113.654C187.636 113.736 187.706 113.806 187.789 113.859C187.871 113.911 187.964 113.946 188.061 113.959C188.158 113.973 188.257 113.965 188.35 113.938C188.444 113.91 188.531 113.862 188.605 113.798C188.678 113.733 188.737 113.654 188.778 113.565C188.818 113.475 188.839 113.379 188.838 113.281C188.838 113.183 188.817 113.086 188.776 112.997C188.697 112.729 188.644 112.454 188.618 112.175V112.175ZM192.363 118.107C192.812 117.908 193.221 117.629 193.571 117.285C193.851 117.022 193.728 116.725 193.326 116.795L192.153 117.04C191.92 116.188 191.774 115.314 191.716 114.432C191.716 113.767 191.418 111.632 191.068 111.492C190.718 111.352 190.631 112.035 190.526 112.63C190.211 114.625 190.473 118.842 192.363 118.107V118.107ZM195.251 111.702C195.277 111.863 195.359 112.008 195.482 112.113C195.605 112.218 195.762 112.276 195.924 112.276C196.087 112.276 196.243 112.218 196.367 112.113C196.49 112.008 196.572 111.863 196.598 111.702V110.74C196.576 110.562 196.489 110.399 196.353 110.282C196.217 110.166 196.042 110.104 195.863 110.11C195.684 110.128 195.518 110.214 195.401 110.351C195.283 110.488 195.223 110.665 195.233 110.845C195.163 110.967 195.251 111.702 195.251 111.702V111.702ZM195.933 119.21C195.688 119.21 195.933 119.21 194.621 120.242C194.494 120.346 194.359 120.439 194.218 120.522C192.923 121.275 192.328 120.855 192.206 121.24C192.083 121.625 193.116 122.237 194.253 121.957C196.108 121.502 196.406 119.35 195.933 119.21V119.21ZM69.2332 122.745C69.4257 123.34 70.1607 123.602 70.7732 123.742C75.7607 125.002 93.6457 124.285 98.9657 123.235C99.6307 123.095 100.716 122.867 101.118 122.325C102.378 120.242 101.766 87.92 100.313 86.1C98.8607 84.28 73.2407 84.5075 70.8957 86.3275C69.1457 87.7275 68.7432 121.31 69.2332 122.745V122.745ZM97.4082 106.995C97.93 106.808 98.4873 106.74 99.0386 106.798C99.59 106.856 100.121 107.036 100.593 107.327C100.668 112.105 100.487 116.884 100.051 121.642L99.7007 121.765C98.5076 117.31 96.0812 113.282 92.7007 110.145C94.1449 108.904 95.724 107.83 97.4082 106.942V106.995ZM90.9857 92.9949C93.8732 94.8499 93.7857 99.61 88.7457 99.6625C85.6832 99.6625 84.3707 98.1925 84.3707 96.4425C84.3524 95.6655 84.5509 94.8989 84.944 94.2285C85.3371 93.5581 85.9091 93.0105 86.596 92.6471C87.2829 92.2837 88.0575 92.1188 88.8328 92.1709C89.6082 92.2231 90.3537 92.4903 90.9857 92.9425V92.9949ZM73.7307 107.695C78.8582 104.632 82.6557 104.457 87.7307 107.695C92.2632 110.617 97.2332 116.445 98.4232 122.062C93.1732 123.007 73.0132 123.812 70.4232 122.395C70.1957 121.45 70.1082 111.545 70.1082 110.46C71.2215 109.406 72.4348 108.462 73.7307 107.642V107.695ZM241.206 303.135C240.395 303.196 239.592 303.337 238.808 303.555C237.986 303.87 237.268 304.377 237.671 305.165C238.178 306.291 238.953 307.277 239.928 308.035C240.173 308.297 240.558 307.912 240.313 307.65C240.068 307.387 240.033 306.845 239.053 304.902C239.885 304.542 240.687 304.115 241.451 303.625C241.501 303.585 241.536 303.529 241.55 303.466C241.564 303.404 241.555 303.338 241.527 303.281C241.498 303.223 241.45 303.177 241.392 303.151C241.334 303.124 241.268 303.119 241.206 303.135ZM237.653 298.112C237.319 298.083 236.984 298.15 236.687 298.305C236.39 298.461 236.144 298.698 235.978 298.989C235.812 299.281 235.734 299.613 235.751 299.948C235.769 300.283 235.882 300.605 236.078 300.877C236.094 300.938 236.129 300.991 236.178 301.029C236.227 301.067 236.287 301.088 236.349 301.088C236.412 301.088 236.472 301.067 236.521 301.029C236.57 300.991 236.605 300.938 236.621 300.877C236.622 300.432 236.739 299.995 236.96 299.609C237.18 299.222 237.498 298.9 237.881 298.672C238.143 298.48 238.091 298.025 237.653 298.112V298.112ZM192.626 124.11C192.443 124.104 192.263 124.158 192.114 124.264C191.965 124.369 191.854 124.521 191.799 124.695C191.744 124.869 191.746 125.056 191.807 125.229C191.868 125.401 191.983 125.549 192.136 125.65C192.318 125.766 192.538 125.806 192.75 125.764C192.962 125.722 193.149 125.599 193.273 125.422C193.352 125.298 193.397 125.156 193.405 125.009C193.413 124.863 193.383 124.716 193.318 124.585C193.253 124.453 193.155 124.34 193.034 124.257C192.913 124.174 192.772 124.123 192.626 124.11V124.11ZM195.706 125.265C195.486 125.286 195.281 125.387 195.13 125.548C194.978 125.709 194.891 125.919 194.883 126.14C194.881 126.303 194.928 126.463 195.017 126.599C195.106 126.736 195.234 126.843 195.384 126.906C195.534 126.97 195.7 126.988 195.86 126.957C196.02 126.927 196.167 126.849 196.283 126.735C196.413 126.621 196.504 126.47 196.544 126.302C196.585 126.134 196.573 125.958 196.51 125.798C196.447 125.637 196.336 125.5 196.192 125.404C196.048 125.309 195.878 125.26 195.706 125.265ZM195.653 122.622C195.618 122.747 195.612 122.878 195.636 123.005C195.66 123.132 195.713 123.252 195.791 123.356C195.869 123.459 195.97 123.543 196.086 123.601C196.201 123.659 196.329 123.689 196.458 123.69C196.582 123.686 196.703 123.656 196.815 123.603C196.926 123.55 197.026 123.474 197.106 123.38C197.187 123.286 197.247 123.176 197.283 123.058C197.319 122.94 197.33 122.815 197.316 122.692C197.277 122.505 197.177 122.336 197.032 122.212C196.886 122.088 196.703 122.016 196.512 122.008C196.321 122 196.132 122.056 195.977 122.167C195.821 122.279 195.707 122.439 195.653 122.622V122.622ZM200.413 126.227C200.594 126.233 200.772 126.178 200.919 126.072C201.065 125.966 201.173 125.814 201.225 125.641C201.277 125.467 201.27 125.282 201.205 125.112C201.141 124.943 201.022 124.8 200.868 124.705C200.742 124.628 200.598 124.586 200.45 124.582C200.302 124.579 200.156 124.614 200.027 124.685C199.897 124.756 199.789 124.86 199.712 124.987C199.636 125.113 199.594 125.257 199.591 125.405C199.595 125.622 199.683 125.828 199.837 125.982C199.99 126.135 200.196 126.223 200.413 126.227V126.227ZM201.936 122.325C202.053 122.301 202.163 122.252 202.26 122.182C202.357 122.112 202.438 122.022 202.497 121.918C202.556 121.815 202.593 121.699 202.604 121.58C202.615 121.461 202.601 121.341 202.562 121.228C202.523 121.115 202.46 121.012 202.378 120.925C202.296 120.838 202.196 120.77 202.086 120.725C201.975 120.679 201.856 120.658 201.737 120.663C201.617 120.667 201.5 120.697 201.393 120.75C201.211 120.841 201.067 120.995 200.99 121.184C200.913 121.372 200.907 121.583 200.973 121.776C201.04 121.968 201.174 122.13 201.351 122.231C201.528 122.333 201.736 122.366 201.936 122.325Z" fill="black"/>
<path d="M332.958 207.672C329.624 206.666 326.041 206.871 322.843 208.25C330.071 198.975 333.956 189.7 333.956 177.205C333.956 170.117 333.256 163.45 326.553 161.227C322.423 159.845 315.196 161.997 311.276 163.992C311.276 156.572 311.888 58.7649 309.228 51.6949C309.018 51.0824 307.828 50.8199 307.128 50.6449C299.586 48.8074 263.378 45.5174 261.628 47.0399C260.491 48.0199 260.876 55.4224 260.946 56.8924C258.583 56.8924 247.331 56.7349 245.826 58.5374C243.498 61.2849 231.108 93.2399 231.826 96.7924C231.86 96.993 231.958 97.1771 232.106 97.3174C239.526 104.545 288.596 103.232 290.836 98.7349C292.288 96.1099 282.436 61.4774 280.686 59.4999C278.936 57.5224 264.358 56.9974 261.576 56.9624C261.392 54.0425 261.498 51.1116 261.891 48.2124C262.066 47.4774 262.188 47.5474 262.468 47.4949C267.158 46.6374 305.431 50.4174 308.301 52.2199C309.596 56.2099 309.613 81.6724 310.191 164.692C305.202 167.546 301.254 171.917 298.921 177.17C296.611 176.82 293.461 179.445 291.816 181.09C289.573 183.379 287.622 185.936 286.006 188.702C285.706 183.64 284.867 178.624 283.503 173.74C279.531 163.047 267.561 143.99 259.213 152.04C256.048 155.608 253.897 159.959 252.983 164.64C249.938 161.748 246.588 159.195 242.991 157.027C240.873 149.587 236.193 143.134 229.778 138.81C227.171 136.978 224.407 135.379 221.518 134.032C221.495 133.977 221.466 133.924 221.431 133.875C219.681 131.897 215.183 131.302 212.506 131.197C212.751 129.185 211.018 120.435 210.598 118.3C211.12 118.31 211.634 118.177 212.086 117.915C213.836 117.81 220.696 117.477 221.938 116.375C222.167 116.114 222.313 115.791 222.358 115.447C222.649 113.646 222.836 111.828 222.918 110.005C223.776 97.0724 223.198 97.7549 223.601 97.7549C229.131 99.8024 230.951 94.4649 223.601 91.8749V91.3499C225.753 90.8774 228.256 89.8799 227.258 87.8499C226.853 87.2786 226.31 86.8187 225.68 86.5128C225.05 86.207 224.353 86.0649 223.653 86.0999C223.653 81.6549 224.826 19.4424 222.026 16.0999C218.893 12.3724 123.186 14.2099 119.913 17.6749C117.936 19.6699 119.161 107.555 121.436 115.92C121.558 116.357 122.031 116.445 122.486 116.515C130.063 117.74 174.986 118.265 185.486 118.37C185.708 119.499 185.994 120.615 186.343 121.712C187.147 123.715 188.336 125.541 189.843 127.085C191.162 128.007 192.716 128.535 194.323 128.607C193.798 129.797 192.783 132.002 192.258 133.105C187.321 134.559 182.61 136.691 178.258 139.44C166.498 147.542 157.801 162.627 151.186 175C149.948 177.45 148.878 179.982 147.983 182.577C140.703 182.385 110.778 183.435 109.991 184.327C109.588 184.712 109.991 185.517 110.096 186.235C111.461 191.292 116.553 207.777 118.653 213.692C115.486 214.2 112.318 214.847 109.151 215.442C109.066 215.209 108.967 214.981 108.853 214.76C108.81 214.658 108.746 214.567 108.667 214.49C108.587 214.414 108.493 214.354 108.389 214.315C108.286 214.276 108.176 214.258 108.066 214.262C107.955 214.266 107.847 214.292 107.747 214.339C107.647 214.386 107.558 214.453 107.484 214.535C107.41 214.618 107.354 214.714 107.318 214.819C107.283 214.923 107.269 215.034 107.277 215.144C107.285 215.254 107.315 215.362 107.366 215.46C107.4 215.534 107.429 215.61 107.453 215.687C103.708 216.195 101.486 216.142 93.2257 217.315C93.1691 217.127 93.0469 216.965 92.8813 216.859C92.7157 216.753 92.5177 216.71 92.3231 216.738C92.1285 216.765 91.9502 216.861 91.8204 217.009C91.6907 217.157 91.618 217.346 91.6157 217.542C86.8207 218.26 82.5332 219.012 77.4407 219.957C77.3716 219.737 77.2898 219.521 77.1957 219.31C77.1072 219.11 76.9445 218.953 76.7419 218.871C76.5394 218.79 76.313 218.79 76.1107 218.872C76.0104 218.914 75.9193 218.976 75.8429 219.053C75.7664 219.131 75.7061 219.223 75.6654 219.324C75.6247 219.424 75.6045 219.532 75.6058 219.641C75.6072 219.75 75.6301 219.858 75.6732 219.957C75.6732 220.062 75.6732 220.15 75.7957 220.255C71.4557 221.06 67.0457 221.9 62.7932 222.687V221.952C62.759 221.739 62.6471 221.546 62.4791 221.41C62.3111 221.275 62.0989 221.206 61.8832 221.217C61.775 221.228 61.67 221.261 61.5743 221.312C61.4786 221.364 61.3941 221.434 61.3258 221.519C61.2574 221.604 61.2065 221.701 61.176 221.805C61.1456 221.91 61.1361 222.019 61.1482 222.127C61.1658 222.413 61.1658 222.699 61.1482 222.985C58.9957 223.37 56.8257 223.72 54.6557 224.07C54.5898 223.892 54.4647 223.743 54.3014 223.647C54.1381 223.551 53.9468 223.515 53.7596 223.543C53.5725 223.572 53.401 223.665 53.2741 223.805C53.1472 223.946 53.0728 224.126 53.0632 224.315C38.6782 226.537 41.6882 225.82 37.6632 217.805C36.9816 215.97 35.8215 214.351 34.3032 213.115C34.0628 212.976 33.7969 212.886 33.5214 212.852C33.2458 212.817 32.9661 212.838 32.6986 212.913C32.4312 212.988 32.1815 213.115 31.9642 213.288C31.7469 213.461 31.5663 213.676 31.4332 213.92C30.3132 215.495 31.1007 220.797 31.4332 222.827C31.7657 224.857 33.5507 234.272 34.7757 235.497C35.2307 235.952 36.7182 235.987 38.0482 236.057V236.46C25.9032 237.597 10.5032 241.885 9.41824 254.1C8.61324 263.252 16.0332 266.875 24.9757 268.817C24.4157 271.88 16.9257 311.867 17.3282 314.195C17.8182 316.837 24.1532 318.377 25.2207 315.525C26.8657 311.062 32.8682 274.802 33.6557 270.025C42.6078 270.838 51.6222 270.662 60.5357 269.5C61.3407 274.26 67.3082 310.31 68.9532 314.772C70.0032 317.607 76.3557 316.067 76.8282 313.442C77.2482 311.115 69.8282 271.547 69.1107 267.627C79.0682 264.652 89.2182 258.562 87.8357 248.22C100.576 247.642 115.153 246.067 127.753 244.422C127.741 246.678 128.269 248.905 129.293 250.915C130.536 253.242 134.998 254.835 137.501 255.64C137.046 258.072 128.523 303.38 128.961 305.847C129.398 308.315 135.786 310.012 136.836 307.177C138.586 302.54 144.956 263.637 145.953 257.827C165.343 261.835 174.338 260.662 181.286 259.875C181.461 261.957 184.786 305.007 185.888 307.125C187.043 309.54 193.571 309.365 193.851 306.355C194.288 301.507 190.351 263.48 189.983 258.737C200.651 257.382 211.13 254.823 221.221 251.107C223.321 259.105 228.658 279.107 229.113 280.735C224.033 282.729 219.736 286.315 216.863 290.955C213.779 292.329 210.776 293.877 207.868 295.592C206.262 296.298 204.717 297.135 203.248 298.095C201.86 298.974 200.669 300.129 199.748 301.49C199.647 301.715 199.594 301.96 199.594 302.207C199.594 302.455 199.647 302.699 199.748 302.925C200.174 303.792 200.769 304.565 201.498 305.2C204.701 307.982 206.328 306.67 212.418 315.367C215.533 319.795 216.671 325.447 220.573 330.225C223.321 333.585 224.686 337.225 231.073 335.597C234.573 334.722 236.498 333.2 241.276 331.905C243.708 331.257 246.211 330.785 248.643 330.05C263.728 325.535 260.176 326.76 270.501 325.29C272.251 325.027 274.123 324.625 275.926 324.345C279.086 324.086 282.258 323.993 285.428 324.065C285.827 323.961 286.185 323.737 286.454 323.425C286.723 323.112 286.89 322.725 286.933 322.315C287.086 321.396 287.127 320.461 287.056 319.532C287.235 317.403 286.706 315.275 285.551 313.477C293.636 314.877 314.933 313.197 316.718 312.147C316.884 312.062 317.018 311.928 317.103 311.762C318.153 309.505 319.641 289.31 319.658 281.575C320.245 281.482 320.828 281.371 321.408 281.242C322.633 280.945 322.808 275.222 322.038 273.665C321.975 273.513 321.88 273.376 321.759 273.264C321.638 273.152 321.495 273.068 321.338 273.017C316.333 271.88 302.631 272.16 297.241 272.37C297.044 265.849 296.336 259.355 295.123 252.945C301.611 251.454 307.919 249.265 313.936 246.417C325.153 240.87 331.663 238.682 339.171 227.85C344.543 220.15 341.831 210.612 332.958 207.672V207.672ZM280.266 59.7799C282.016 61.5299 290.188 93.0299 290.048 97.8949C289.943 101.92 240.331 103.145 233.173 96.5124C233.261 91.0349 244.933 61.2849 246.666 59.1849C248.398 57.0849 277.991 57.3299 280.266 59.7799V59.7799ZM315.511 163.607C318.433 162.645 323.211 161.507 326.133 162.487C332.188 164.5 332.608 170.852 332.608 177.205C332.608 190.4 328.163 199.815 320.166 209.457C316.491 211.484 313.14 214.05 310.226 217.07C311.798 210.518 312.184 203.738 311.363 197.05C311.228 195.861 310.976 194.689 310.611 193.55C311.83 189.86 313.34 186.273 315.126 182.822C317.943 177.572 319.081 177.66 318.626 177.222C318.603 177.196 318.574 177.175 318.543 177.161C318.511 177.147 318.477 177.139 318.442 177.139C318.407 177.139 318.373 177.147 318.341 177.161C318.309 177.175 318.281 177.196 318.258 177.222C314.556 181.402 311.73 186.282 309.946 191.572C308.318 187.232 304.118 179.445 300.006 177.572C301.477 174.294 303.615 171.359 306.285 168.954C308.955 166.55 312.097 164.729 315.511 163.607V163.607ZM292.656 182C294.141 180.321 296.079 179.105 298.238 178.5C301.563 177.975 309.368 190.12 310.016 197.295C310.943 204.641 310.347 212.099 308.266 219.205C306.514 221.114 304.884 223.13 303.383 225.242C300.076 229.932 298.308 230.877 295.543 238.385C296.016 219.8 297.486 195.93 297.486 195.142C297.503 195.102 297.511 195.058 297.507 195.014C297.503 194.97 297.488 194.928 297.464 194.892C297.439 194.855 297.406 194.825 297.367 194.805C297.328 194.784 297.285 194.774 297.241 194.775C296.943 194.775 296.943 195.142 296.908 195.422C296.436 199.885 294.686 229.25 294.336 240.642C291.238 225.715 283.836 220.08 281.333 216.457C280.371 204.4 284.011 190.522 292.656 182V182ZM257.656 195.422C259.406 200.235 262.538 207.077 266.406 210.385C262.414 209.546 258.273 209.751 254.383 210.98C255.276 207.847 257.183 199.185 257.691 195.37L257.656 195.422ZM251.968 215.25C251.937 214.777 252.053 214.306 252.301 213.902C255.801 209.282 274.683 209.16 285.551 223.737C290.808 231.163 293.71 239.998 293.881 249.095C289.033 240.905 272.233 224.84 261.401 221.095C261.367 221.083 261.332 221.079 261.297 221.081C261.262 221.083 261.227 221.092 261.196 221.107C261.164 221.123 261.136 221.144 261.112 221.171C261.089 221.197 261.071 221.228 261.059 221.261C261.048 221.294 261.043 221.33 261.045 221.365C261.047 221.4 261.056 221.435 261.072 221.466C261.087 221.498 261.109 221.526 261.135 221.55C261.162 221.573 261.192 221.591 261.226 221.602C273.983 226.275 294.038 248.01 293.776 252.437C292.693 252.416 291.61 252.486 290.538 252.647C289.021 252.646 287.505 252.529 286.006 252.297C281.211 251.475 278.131 249.27 270.833 242.41C265.697 237.713 260.929 232.629 256.571 227.202C254.908 224.315 251.916 218.627 251.968 215.25V215.25ZM254.068 165.322C254.875 160.707 256.947 156.406 260.053 152.897C267.298 145.897 278.691 164.745 282.173 174.125C283.65 179.602 284.53 185.223 284.798 190.89C281.404 198.242 279.825 206.303 280.196 214.392C275.191 206.832 268.226 190.4 265.688 177.642C265.216 175.385 263.308 163.467 263.308 162.085C263.518 161.735 262.783 161.332 262.748 162.085C263.173 169.814 264.303 177.487 266.126 185.01C268.802 194.386 272.548 203.423 277.291 211.942C281.071 218.942 281.823 216.247 273.476 212.415C271.782 211.674 270.025 211.089 268.226 210.665C267.291 209.979 266.424 209.205 265.636 208.355C258.723 200.357 252.388 178.08 254.068 165.34V165.322ZM122.486 219.572C125.058 219.712 127.928 218.995 128.996 216.685L141.508 217C141.393 218.128 141.718 219.257 142.416 220.151C143.114 221.044 144.131 221.634 145.253 221.795C146.278 221.929 147.32 221.851 148.314 221.565C149.307 221.279 150.231 220.791 151.028 220.132C151.443 219.767 151.766 219.309 151.97 218.795C152.174 218.28 152.253 217.725 152.201 217.175L160.443 217.297C160.881 217.927 185.363 215.075 187.551 214.042C188.636 213.535 188.321 211.75 187.691 210.735C187.901 210.735 187.796 210.735 188.041 211.137C188.189 211.503 188.438 211.818 188.758 212.047C191.756 212.413 194.797 212.059 197.631 211.015C198.191 210.63 198.121 210.175 197.998 209.457C213.538 207.252 212.243 207.707 221.063 205.677C221.553 205.572 214.938 207.865 211.001 209.982C209.1 210.984 207.336 212.225 205.751 213.675C201.761 217.507 192.976 245.035 185.958 246.365C177.388 247.801 168.661 248.048 160.023 247.1C160.272 246.488 160.335 245.817 160.204 245.169C160.074 244.522 159.755 243.927 159.288 243.46C158.558 242.79 157.703 242.271 156.772 241.931C155.842 241.592 154.853 241.44 153.863 241.482C150.818 241.482 149.296 243.355 149.838 245.787C141.828 244.494 133.921 242.629 126.178 240.205C125.408 238 122.888 222.25 122.486 219.572V219.572ZM122.206 216.422L127.456 216.65C126.823 217.271 126.059 217.741 125.22 218.026C124.381 218.311 123.488 218.403 122.608 218.295C122.538 218.102 122.398 217.332 122.206 216.422ZM150.906 217.157C150.914 217.274 150.914 217.391 150.906 217.507C150.855 217.936 150.703 218.347 150.463 218.706C150.223 219.065 149.901 219.362 149.523 219.572C148.236 220.313 146.747 220.626 145.271 220.465C144.558 220.318 143.908 219.953 143.413 219.419C142.917 218.886 142.6 218.212 142.506 217.49C142.497 217.333 142.497 217.175 142.506 217.017L150.906 217.157ZM167.163 204.242L162.946 204.767C175.808 187.547 168.511 195.317 167.163 204.242ZM162.106 205.992L167.356 205.397C167.793 206.167 171.993 207.532 172.798 207.795C172.645 208.087 172.516 208.391 172.413 208.705C168.651 208.425 164.696 208.162 160.601 208.022L162.106 205.992ZM196.773 210C194.391 210.678 191.916 210.973 189.441 210.875C187.555 206.535 185.942 202.081 184.611 197.54C186.615 195.785 189.018 194.548 191.611 193.935C192.381 195.772 196.686 208.145 196.773 210V210ZM187.306 209.527C177.471 210.14 175.056 210.49 173.498 210.105C173.393 205.852 180.691 203.647 184.926 202.965C185.766 205.537 186.641 207.882 187.306 209.51V209.527ZM167.093 213.36C169.088 213.08 184.593 211.015 186.588 211.487C186.831 211.906 186.947 212.387 186.921 212.87C184.506 213.605 161.143 216.72 160.933 216.737C160.71 216.059 160.592 215.351 160.583 214.637V214.497C161.458 214.48 158.186 214.585 167.093 213.342V213.36ZM159.586 209.195C163.086 209.335 166.743 209.527 172.186 209.965C172.186 210.437 172.186 210.875 172.676 211.225C173.166 211.575 174.426 211.067 166.691 212.52C164.507 212.815 162.361 213.337 160.286 214.077C159.236 208.775 159.183 209.667 159.586 209.177V209.195ZM158.816 246.557C149.803 245.612 150.416 245.927 150.398 245.542C150.346 245.08 150.422 244.613 150.616 244.19C150.81 243.768 151.116 243.406 151.501 243.145C153.461 241.867 159.936 243.407 158.816 246.54V246.557ZM220.241 134.102C219.768 134.47 203.493 146.842 201.096 148.347C199.883 146.457 198.544 144.65 197.088 142.94C199.048 140.77 212.243 131.687 212.243 131.687C212.803 131.687 218.176 132.265 220.241 134.085V134.102ZM185.626 136.5C187.766 135.635 189.965 134.921 192.206 134.365C195.706 142.852 194.796 140.997 195.391 142.502C192.835 143.651 190.347 144.943 187.936 146.37C186.868 143.832 185.276 139.177 185.626 136.5ZM222.376 84.1049V86.3099C217.126 86.9924 217.126 88.0599 217.126 87.3774C219.978 85.7499 221.816 85.3124 222.393 83.9999L222.376 84.1049ZM215.516 97.6849C215.159 97.3671 214.758 97.1019 214.326 96.8974C214.063 96.7574 214.326 96.8974 214.326 96.4949C214.391 96.1715 214.391 95.8383 214.326 95.5149C214.761 95.6295 215.206 95.6998 215.656 95.7249C215.568 96.2499 215.551 96.9849 215.533 97.6149L215.516 97.6849ZM209.811 88.2874C209.251 89.0399 208.586 89.8099 208.061 90.5974C208.835 87.5289 210.447 84.7359 212.716 82.5299C213.463 82.049 214.177 81.5169 214.851 80.9374C217.021 78.4349 213.101 75.8799 209.916 78.7324C207.549 80.7655 205.929 83.531 205.313 86.5899C204.858 88.9174 205.541 88.6374 204.701 88.4274C203.932 88.1494 203.09 88.1494 202.321 88.4274C201.761 86.7824 198.086 86.7999 196.843 87.6924C196.336 88.0599 196.686 87.9899 196.283 87.6924C195.5 87.4722 194.678 87.4287 193.876 87.5648C193.074 87.701 192.312 88.0136 191.646 88.4799C191.488 88.5849 190.928 89.2849 190.613 89.6174C189.925 89.583 189.237 89.7026 188.601 89.9674C187.943 90.2689 187.428 90.815 187.166 91.4899V91.8924C186.853 91.8356 186.533 91.8356 186.221 91.8924C185.042 92.3841 184.105 93.3212 183.613 94.4999C183.327 95.0363 183.247 95.6583 183.386 96.2499C181.863 97.0724 180.271 98.2624 180.533 99.9774C180.68 100.408 180.899 100.811 181.181 101.167C180.743 101.482 179.553 101.622 179.798 104.282L178.486 104.177C177.576 99.5749 177.016 71.0324 177.471 70.7174C179.553 69.7549 211.911 69.6324 215.253 70.5599C215.647 74.5137 215.811 78.4871 215.743 82.4599C213.394 83.949 211.38 85.9095 209.828 88.2174L209.811 88.2874ZM220.888 115.412C218.738 115.987 216.532 116.321 214.308 116.41C214.616 116.185 214.851 115.874 214.982 115.515C215.112 115.157 215.134 114.768 215.043 114.397C215.386 114.332 215.709 114.185 215.983 113.969C216.257 113.753 216.475 113.473 216.618 113.155C216.811 112.636 216.811 112.064 216.618 111.545C216.513 111.3 216.408 111.545 216.951 111.247C217.276 111.094 217.565 110.872 217.798 110.597C218.03 110.322 218.201 110 218.299 109.654C218.397 109.307 218.42 108.943 218.365 108.587C218.31 108.231 218.18 107.891 217.983 107.59C218.252 107.28 218.426 106.898 218.482 106.49C218.538 106.083 218.474 105.669 218.298 105.297C218.011 104.789 217.57 104.385 217.038 104.142C217.299 103.705 217.409 103.195 217.353 102.689C217.296 102.184 217.075 101.711 216.723 101.342C216.723 99.8374 216.863 97.9474 216.933 95.8299C218.738 95.847 220.508 96.3227 222.078 97.2124C221.973 100.065 221.588 112.752 220.906 115.342L220.888 115.412ZM122.556 115.412C120.211 105.35 118.776 19.7049 120.281 18.1649C123.186 14.9799 214.693 13.8074 221.186 16.9749C221.506 18.1182 221.711 19.2907 221.798 20.4749C223.058 33.3374 222.691 69.4749 222.463 82.7224C221.641 80.7799 219.051 80.9724 217.091 81.7249C217.136 77.8551 216.943 73.9861 216.513 70.1399C216.495 69.9483 216.42 69.7665 216.298 69.6171C216.177 69.4678 216.014 69.3574 215.831 69.2999C212.768 68.1974 178.468 68.9324 177.103 70.2274C176.263 71.0499 176.561 101.727 177.471 104.755C177.526 104.883 177.615 104.994 177.73 105.074C177.844 105.155 177.979 105.202 178.118 105.21C178.608 105.21 179.746 105.367 180.131 105.385C180.428 105.927 180.901 106.032 181.163 106.26C181.008 106.388 180.887 106.553 180.811 106.739C180.735 106.925 180.705 107.127 180.726 107.327C180.821 108.235 181.173 109.098 181.741 109.812C182.581 110.81 183.351 110.512 184.208 110.512C184.383 111.965 184.751 114.362 185.293 117.022C172.763 117.04 128.226 116.375 122.573 115.29L122.556 115.412ZM195.828 127.662C195.632 127.5 195.383 127.413 195.128 127.417C193.611 127.389 192.128 126.967 190.823 126.192C189.436 124.785 188.326 123.128 187.551 121.31C186.191 116.691 185.334 111.938 184.996 107.135C185.153 104.965 187.341 102.287 191.296 101.465C194.415 100.917 197.626 101.313 200.518 102.602C202.846 103.53 206.066 107.24 207.361 109.252C207.421 109.336 207.51 109.393 207.611 109.413C207.712 109.432 207.816 109.412 207.903 109.357C208.453 109.003 209.04 108.709 209.653 108.482C210.175 108.36 210.724 108.448 211.182 108.726C211.64 109.004 211.971 109.451 212.103 109.97C213.013 112.035 209.601 115.482 209.128 116.147C209.062 116.322 209.062 116.515 209.128 116.69C210.094 121.4 210.783 126.162 211.193 130.952C210.616 131.285 209.898 131.827 203.931 136.307C201.364 137.945 198.908 139.752 196.581 141.715C195.933 139.65 194.288 136.01 193.448 134.172C196.213 127.977 196.248 128.012 195.846 127.61L195.828 127.662ZM152.341 175.612C159.341 162.347 170.296 142.922 184.996 136.955C184.928 140.678 185.681 144.371 187.201 147.77C187.259 147.853 187.336 147.921 187.426 147.968C187.516 148.014 187.616 148.039 187.717 148.039C187.818 148.039 187.918 148.014 188.008 147.968C188.098 147.921 188.175 147.853 188.233 147.77C188.907 147.195 189.654 146.712 190.456 146.335C190.783 147.593 191.34 148.78 192.101 149.835C191.716 152.04 184.698 180.915 185.101 182.612C186.341 185.827 187.982 188.873 189.983 191.677C190.368 192.202 190.788 192.605 191.331 192.167C193.971 189.493 196.168 186.415 197.841 183.05C197.946 182.682 197.981 182.927 196.773 150.465C197.351 149.8 198.523 148.4 199.066 147.595C200.501 149.607 199.696 149.345 200.203 149.747C200.711 150.15 201.008 149.922 201.446 149.747C204.316 148.102 218.946 136.797 221.238 134.61C224.087 135.91 226.811 137.469 229.376 139.265C240.873 146.615 243.376 159.477 244.583 173.022C245.388 182.542 244.181 190.627 237.146 196.682C232.499 200.448 227.032 203.068 221.186 204.33C217.371 205.275 200.781 207.707 197.631 208.145C196.248 203.814 194.648 199.556 192.836 195.387C198.558 192.902 208.831 189.245 214.676 187.267C214.777 187.239 214.866 187.177 214.927 187.091C214.987 187.005 215.016 186.9 215.008 186.795C214.623 181.895 214.116 169.102 216.006 164.552C216.146 164.237 215.638 164.027 215.498 164.342C213.468 168.98 213.748 181.422 214.028 186.48C208.026 188.405 198.103 191.73 192.328 194.232C192.083 193.707 192.066 193.462 191.576 193.41C190.088 193.287 184.366 195.72 183.578 197.207C183.228 197.855 184.296 201.127 184.663 202.3C181.023 202.615 175.913 203.822 173.498 206.622C171.743 206.124 170.043 205.45 168.423 204.61C169.193 199.36 173.428 191.012 176.088 186.585C177.103 184.835 178.381 173.477 178.503 171.605C178.6 169.932 178.6 168.255 178.503 166.582C178.488 166.522 178.453 166.469 178.404 166.431C178.355 166.393 178.294 166.372 178.232 166.372C178.17 166.372 178.109 166.393 178.06 166.431C178.011 166.469 177.976 166.522 177.961 166.582C177.856 167.667 177.663 168.927 177.436 170.362C177.331 171.15 176.088 183.942 174.811 186.112C170.751 191.87 163.243 202.405 158.903 207.97C158.746 207.27 153.531 183.925 152.516 183.295C151.475 182.966 150.387 182.806 149.296 182.822C150.151 180.355 151.168 177.946 152.341 175.612V175.612ZM111.303 185.307C116.781 184.747 149.803 183.085 151.956 184.152C152.061 184.975 154.353 191.012 156.331 200.41C157.818 207.41 159.831 214.41 160.216 216.737C159.306 216.737 122.276 215.267 120.561 214.987C119.231 211.995 112.196 188.807 111.303 185.307V185.307ZM35.6857 234.377C34.6357 232.627 31.0307 216.702 32.5532 214.567C34.5132 211.837 37.8032 221.742 38.8882 223.685C40.9882 227.797 44.6282 226.852 53.5357 225.435C53.8507 226.362 53.9557 227.185 54.7607 227.185C54.8954 227.182 55.0274 227.148 55.1458 227.083C55.2642 227.019 55.3654 226.927 55.4408 226.816C55.5163 226.704 55.5639 226.576 55.5795 226.443C55.5952 226.309 55.5785 226.173 55.5307 226.047C55.3907 225.697 55.2857 225.365 55.1982 225.085C61.9007 224.017 61.1832 223.965 61.2007 224.245C61.2007 224.463 61.2874 224.672 61.4416 224.826C61.5959 224.981 61.8051 225.067 62.0232 225.067C62.2414 225.067 62.4506 224.981 62.6048 224.826C62.7591 224.672 62.8457 224.463 62.8457 224.245V223.842C67.3257 223.037 71.7882 222.092 76.2682 221.34C76.2682 221.585 76.3907 221.812 76.4782 222.04C76.5502 222.246 76.7012 222.416 76.8981 222.511C77.095 222.606 77.3217 222.619 77.5282 222.547C77.7348 222.475 77.9043 222.324 77.9994 222.127C78.0946 221.931 78.1077 221.704 78.0357 221.497C78.0357 221.34 78.0357 221.182 77.8957 221.042C82.7782 220.132 87.0132 219.292 91.7732 218.662V219.852C91.7824 219.96 91.8128 220.066 91.8626 220.162C91.9125 220.258 91.9808 220.344 92.0636 220.413C92.1465 220.483 92.2423 220.536 92.3456 220.569C92.449 220.602 92.5577 220.614 92.6657 220.605C92.7737 220.596 92.8789 220.565 92.9752 220.516C93.0714 220.466 93.1569 220.397 93.2268 220.314C93.2967 220.232 93.3496 220.136 93.3824 220.032C93.4153 219.929 93.4274 219.82 93.4182 219.712V218.435C102.168 217.157 103.761 217.315 107.978 216.685L108.276 217.507C108.378 217.683 108.539 217.815 108.731 217.88C108.923 217.945 109.132 217.939 109.32 217.862C109.507 217.786 109.661 217.644 109.752 217.463C109.843 217.282 109.866 217.074 109.816 216.877C109.75 216.729 109.691 216.577 109.641 216.422C112.808 215.897 115.958 215.232 119.143 214.672C119.703 216.142 119.633 216.125 121.348 216.265C121.541 216.265 122.171 223.422 124.481 236.267C104.811 237.352 67.0982 238.017 48.5307 235.077C47.4107 234.902 45.6607 234.832 45.8357 234.832C43.8232 232.155 40.1307 227.062 38.5557 229.967C37.826 231.359 37.5856 232.955 37.8732 234.5C37.1421 234.512 36.411 234.471 35.6857 234.377V234.377ZM55.1632 237.247C53.1181 237.755 51.1074 238.392 49.1432 239.155C48.313 238.231 47.5359 237.262 46.8157 236.25C48.6357 236.425 49.7732 236.757 55.1282 237.247H55.1632ZM24.0307 315C23.6457 316.05 20.8107 315.735 19.3932 314.72C18.2907 313.915 17.9232 317.572 25.7282 268.922C28.151 269.408 30.599 269.759 33.0607 269.972C27.9332 296.187 24.8707 312.672 24.0307 315ZM75.5332 312.375C75.5332 313.162 75.7607 313.425 74.9557 314.02C73.5732 315.017 70.7032 315.385 70.3007 314.317C69.4257 311.972 66.0132 293.597 61.3057 269.412C63.743 269.018 66.156 268.486 68.5332 267.82C70.5282 280.297 75.4107 311.01 75.5332 312.287V312.375ZM47.5332 261.24C37.5232 261.24 16.2082 260.872 11.1682 252.175C13.7582 242.007 27.9857 238.717 38.4157 237.65C39.293 241.035 40.3682 244.366 41.6357 247.625C42.2537 249.152 43.4125 250.398 44.8907 251.125C46.0809 251.437 47.3254 251.483 48.5354 251.259C49.7453 251.035 50.891 250.547 51.8907 249.83C76.2332 247.31 66.9757 248.99 84.7907 248.377C78.3332 258.37 59.6257 261.17 47.5507 261.152L47.5332 261.24ZM63.4757 247.467C63.0382 247.467 51.6457 248.395 51.2257 248.64C50.3848 249.249 49.4252 249.674 48.4092 249.889C47.3931 250.103 46.3434 250.1 45.3282 249.882C44.1907 249.289 43.303 248.308 42.8257 247.117C41.7582 244.44 37.2782 232.19 39.7632 230.65C41.6357 230.895 47.2357 239.942 48.6007 240.59C48.7118 240.647 48.8347 240.676 48.9595 240.676C49.0842 240.676 49.2072 240.647 49.3182 240.59C52.4993 239.344 55.7769 238.361 59.1182 237.65C80.9023 238.787 102.735 238.612 124.498 237.125C124.7 238.366 124.981 239.594 125.338 240.8C125.367 240.872 125.412 240.936 125.47 240.987C125.528 241.039 125.596 241.076 125.671 241.097C127.421 241.657 129.573 242.357 132.251 243.11C85.9807 248.832 76.0757 246.435 63.4932 247.38L63.4757 247.467ZM135.646 306.722C135.261 307.772 132.408 307.44 131.008 306.425C129.923 305.655 129.381 310.17 138.113 255.832C140.318 256.515 142.803 257.162 145.446 257.722C139.478 288.225 136.538 304.307 135.663 306.635L135.646 306.722ZM192.573 306.285C192.468 307.387 189.651 307.825 188.023 307.212C186.728 306.722 187.358 310.52 182.003 259.822C184.453 259.542 186.921 259.227 189.406 258.877C191.436 287.717 192.818 303.782 192.591 306.25L192.573 306.285ZM221.921 250.915C224.248 250.005 226.558 249.025 228.798 247.957L236.516 278.46C234.415 278.836 232.357 279.422 230.373 280.21C228.186 272.405 224.108 258.387 221.938 250.827L221.921 250.915ZM243.516 279.177C247.728 279.333 251.898 280.075 255.906 281.382C257.328 281.778 258.73 282.245 260.106 282.782C264.396 284.742 268.251 287.538 271.446 291.007C274.561 294.682 275.261 299.46 274.946 304.307C274.718 307.23 272.828 309.137 270.536 310.992C270.291 309.015 267.036 307.492 265.146 307.195C264.866 307.195 264.831 307.3 265.583 306.88C266.929 306.133 268.006 304.982 268.663 303.59C268.908 303.327 268.506 302.96 268.278 303.222C266.371 304.535 265.356 305.585 262.783 307.195C262.608 307.195 262.643 307.615 261.523 307.562C259.964 307.194 258.365 307.018 256.763 307.037C255.972 305.045 255.673 302.891 255.892 300.758C256.112 298.625 256.843 296.577 258.023 294.787C261.033 290.745 262.171 292.215 262.171 291.462C262.171 290.29 254.506 292.407 254.593 301.752C254.658 303.599 255.174 305.402 256.098 307.002C254.016 307.106 251.968 307.567 250.043 308.367C249.641 308 247.961 308.875 246.876 308.367C247.801 305.236 248.145 301.962 247.891 298.707C247.629 296.765 246.809 294.941 245.528 293.457C244.099 291.828 242.298 290.567 240.278 289.782C236.113 288.277 234.696 290.395 232.228 291.182C231.819 291.32 231.377 291.32 230.968 291.182C229.393 290.675 225.141 289.432 224.213 290.85C223.496 291.917 224.546 293.492 225.228 294.682C225.911 295.872 226.138 295.942 225.001 298.83C224.662 299.787 224.216 300.703 223.671 301.56C222.778 302.487 219.786 303.17 219.226 304.255C218.088 306.355 222.411 308.472 223.216 309.505C224.021 310.537 225.421 312.445 226.173 313.25C229.026 316.365 236.008 317.082 239.631 315.927C241.378 315.377 242.957 314.389 244.216 313.057C245.318 313.985 245.108 315.437 244.811 316.89C244.636 317.73 243.743 318.22 243.061 318.64C240.813 320.092 238.152 320.768 235.483 320.565C234.788 320.34 234.115 320.053 233.471 319.707C231.725 319.291 230.058 318.594 228.536 317.642C227.214 316.305 225.668 315.209 223.968 314.405C215.691 312.287 214.116 302.347 216.723 294.542C219.943 284.637 232.841 278.897 243.533 279.09L243.516 279.177ZM237.811 315.455C239.561 312.445 238.563 308.455 236.673 305.655C234.398 302.155 232.368 303.38 230.811 302.575C228.606 301.42 228.273 300.125 227.398 299.495C226.978 299.221 226.517 299.014 226.033 298.882C226.442 297.993 226.696 297.04 226.786 296.065C226.663 294.875 224.738 292.32 225.036 291.742C225.963 291.305 229.411 292.267 230.391 292.6C232.263 293.23 234.416 291.462 236.061 290.85C238.773 289.957 242.571 292.25 244.408 294.35C247.401 297.85 246.736 302.137 245.843 306.6C245.605 308.721 244.701 310.712 243.261 312.287C241.821 313.862 239.919 314.941 237.828 315.367L237.811 315.455ZM234.416 310.03C234.556 310.275 234.223 310.607 233.926 310.292C233.698 310.068 233.53 309.791 233.435 309.485C233.341 309.18 233.323 308.856 233.383 308.542C233.412 308.229 233.532 307.932 233.728 307.686C233.924 307.441 234.187 307.258 234.486 307.16C234.958 307.002 235.011 307.44 234.836 307.58C234.591 307.916 234.427 308.304 234.357 308.714C234.288 309.124 234.314 309.544 234.433 309.942L234.416 310.03ZM285.901 319.655C285.901 320.635 286.111 322.175 285.463 322.805C285.131 323.137 280.546 322.42 275.856 323.102C274.106 323.365 272.233 323.767 270.431 324.012C260.333 325.447 263.431 324.275 248.363 328.825C245.948 329.542 243.481 330.015 241.048 330.662C236.323 331.94 234.276 333.497 230.863 334.337C225.421 335.702 224.476 332.727 221.763 329.437C217.948 324.782 216.846 319.217 213.643 314.685C207.343 305.777 205.698 307.107 202.461 304.342C201.824 303.817 201.3 303.168 200.921 302.435C200.865 302.342 200.836 302.237 200.836 302.129C200.836 302.021 200.865 301.915 200.921 301.822C201.774 300.767 202.776 299.842 203.896 299.075C205.314 298.133 206.806 297.308 208.358 296.607C210.773 295.295 214.011 293.282 216.111 292.372C212.138 300.772 213.556 313.372 223.461 315.752C224.093 315.968 224.684 316.287 225.211 316.697C226.438 317.83 227.788 318.822 229.236 319.655C230.426 320.18 231.773 320.46 232.963 320.897C233.933 321.471 235.024 321.81 236.149 321.886C237.273 321.962 238.4 321.773 239.438 321.335C241.362 320.755 243.148 319.791 244.688 318.5C245.011 318.164 245.235 317.747 245.336 317.292C245.651 315.542 245.791 313.915 244.461 312.83C245.399 311.679 246.112 310.361 246.561 308.945C247.17 309.169 247.828 309.23 248.468 309.12C245.843 311.272 246.613 313.127 249.991 313.985C253.246 314.791 256.622 314.987 259.948 314.562C263.238 314.265 267.666 314.457 270.326 312.427C272.986 310.397 275.681 308.035 276.013 304.412C276.346 300.79 275.821 299.95 276.346 301.087C277.378 303.292 278.183 305.62 279.373 307.702C281.403 311.202 285.183 313.232 285.726 317.362C285.845 318.092 285.915 318.829 285.936 319.567L285.901 319.655ZM316.088 311.202C316.088 311.202 316.088 311.097 316.088 311.202C316.438 311.85 290.573 313.967 284.413 312.077C284.151 311.762 283.888 311.447 283.591 311.132C281.841 305.305 279.548 289.485 278.848 284.147C292.331 284.198 305.804 283.397 319.186 281.75C318.993 286.72 317.068 308.472 316.106 311.115L316.088 311.202ZM321.338 274.032C322.029 276.213 322.029 278.554 321.338 280.735C320.603 281.89 279.933 283.377 276.836 282.59C275.985 280.557 275.666 278.34 275.908 276.15C275.908 276.15 276.713 275.782 277.553 275.59C286.286 273.56 320.498 272.58 321.426 273.945L321.338 274.032ZM296.208 272.527C291.501 272.72 281.246 273.262 276.818 274.4C276.031 274.61 274.928 274.925 274.718 275.642C274.193 277.305 274.806 282.31 275.978 283.57C276.346 283.99 277.396 284.025 278.166 284.077C278.813 290.57 280.318 302.592 281.666 308.997C278.778 305.602 278.166 301.787 275.768 298.025C275.33 295.138 274.121 292.424 272.268 290.167C268.944 286.527 264.92 283.593 260.438 281.54C259.108 280.997 257.726 280.577 256.116 280.087C250.186 278.031 243.857 277.39 237.636 278.215C237.198 276.465 231.511 255.797 229.253 247.677C240.506 242.112 247.331 232.05 251.548 220.22C252.59 222.903 253.872 225.486 255.381 227.937C257.306 231.087 274.508 248.762 281.263 251.772C284.159 252.97 287.286 253.508 290.416 253.347C291.494 253.316 292.569 253.223 293.636 253.067C294.021 254.712 295.001 259.367 296.296 272.44L296.208 272.527ZM338.016 227.185C330.666 237.79 324.138 239.942 313.306 245.315C307.656 248.028 301.746 250.162 295.666 251.685C297.328 247.607 302.036 242.515 305.011 239.435C312.347 231.994 320.107 224.982 328.251 218.435C328.306 218.393 328.343 218.331 328.353 218.262C328.363 218.193 328.345 218.123 328.303 218.067C328.261 218.012 328.199 217.975 328.13 217.965C328.061 217.955 327.991 217.973 327.936 218.015C311.118 229.425 298.186 244.265 295.123 249.97C295.164 247.829 295.041 245.687 294.756 243.565C295.445 240.363 296.557 237.268 298.063 234.36C299.82 231.31 301.853 228.428 304.136 225.75C310.243 217.297 322.493 205.607 332.468 208.95C340.606 211.592 342.916 220.15 338.103 227.097L338.016 227.185Z" fill="black"/>
<path d="M85.7182 224.787C85.858 224.785 85.9952 224.749 86.1172 224.68C86.2393 224.612 86.3423 224.515 86.4171 224.396C86.4918 224.278 86.5359 224.143 86.5452 224.004C86.5546 223.864 86.529 223.724 86.4707 223.597C86.1382 222.862 85.9632 222.162 85.4907 221.305C85.3836 221.115 85.207 220.974 84.998 220.912C84.789 220.85 84.564 220.872 84.3707 220.972C84.275 221.024 84.1904 221.093 84.1218 221.178C84.0532 221.262 84.0019 221.359 83.971 221.463C83.9401 221.567 83.9301 221.676 83.9417 221.784C83.9532 221.892 83.986 221.997 84.0382 222.092C84.8082 223.51 84.7907 224.787 85.7182 224.787ZM70.1432 226.66C70.1567 226.876 70.2535 227.079 70.4134 227.226C70.5732 227.373 70.7837 227.452 71.0007 227.447C71.1087 227.443 71.2148 227.417 71.3129 227.372C71.411 227.326 71.4991 227.262 71.5722 227.182C71.6454 227.102 71.7021 227.009 71.7392 226.907C71.7762 226.806 71.7929 226.698 71.7882 226.59C71.7882 224.84 72.1732 223.44 70.8607 223.352C70.6407 223.374 70.4384 223.482 70.2976 223.653C70.1567 223.823 70.0886 224.042 70.1082 224.262C70.1957 225.102 70.1082 225.75 70.1432 226.66V226.66ZM100.873 222.092C100.882 222.2 100.913 222.305 100.963 222.402C101.012 222.498 101.081 222.584 101.164 222.653C101.246 222.723 101.342 222.776 101.446 222.809C101.549 222.842 101.658 222.854 101.766 222.845C101.874 222.836 101.979 222.805 102.075 222.755C102.171 222.706 102.257 222.637 102.327 222.554C102.397 222.472 102.45 222.376 102.482 222.272C102.515 222.169 102.527 222.06 102.518 221.952C102.518 221.13 102.518 220.395 102.378 219.45C102.32 219.254 102.193 219.087 102.021 218.978C101.848 218.869 101.642 218.827 101.44 218.859C101.239 218.891 101.056 218.996 100.926 219.153C100.796 219.31 100.727 219.508 100.733 219.712C100.856 220.5 100.803 221.235 100.873 222.092Z" fill="black"/>
</svg>
