<svg width="364" height="327" viewBox="0 0 364 327" fill="none" xmlns="http://www.w3.org/2000/svg">
<path d="M116.955 318.024H102.363V228.204H116.955C118.379 228.204 119.744 228.77 120.751 229.776C121.758 230.783 122.323 232.148 122.323 233.572V312.656C122.323 314.08 121.758 315.445 120.751 316.452C119.744 317.458 118.379 318.024 116.955 318.024Z" stroke="black" stroke-width="4" stroke-linecap="round" stroke-linejoin="round"/>
<path d="M185.531 218.229H198.839" stroke="black" stroke-width="4" stroke-linecap="round" stroke-linejoin="round"/>
<path d="M247.075 298.068H240.423" stroke="black" stroke-width="4" stroke-linecap="round" stroke-linejoin="round"/>
<path d="M253.727 271.452H247.075" stroke="black" stroke-width="4" stroke-linecap="round" stroke-linejoin="round"/>
<path d="M260.383 244.841H253.727" stroke="black" stroke-width="4" stroke-linecap="round" stroke-linejoin="round"/>
<path d="M198.839 218.228C201.323 193.372 204.611 140.048 183.867 140.048C179.897 140.05 176.09 141.627 173.283 144.435C170.476 147.243 168.899 151.05 168.899 155.02V160.008C168.899 196.604 153.027 234.86 122.327 234.86L122.295 311.372H126.223C145.423 311.372 154.491 324.68 188.859 324.68H247.075C248.842 324.711 250.597 324.39 252.238 323.734C253.879 323.08 255.373 322.104 256.634 320.866C257.894 319.627 258.895 318.15 259.578 316.52C260.262 314.891 260.614 313.142 260.614 311.374C260.614 309.607 260.262 307.858 259.578 306.228C258.895 304.599 257.894 303.122 256.634 301.883C255.373 300.644 253.879 299.669 252.238 299.014C250.597 298.359 248.842 298.038 247.075 298.068H253.727C257.256 298.068 260.641 296.666 263.137 294.17C265.633 291.675 267.035 288.29 267.035 284.76C267.035 281.231 265.633 277.846 263.137 275.35C260.641 272.854 257.256 271.452 253.727 271.452H260.399C263.888 271.392 267.213 269.964 269.659 267.475C272.105 264.986 273.476 261.636 273.476 258.146C273.476 254.657 272.105 251.307 269.659 248.818C267.213 246.329 263.888 244.901 260.399 244.84H267.051C268.818 244.871 270.573 244.55 272.214 243.894C273.855 243.24 275.349 242.264 276.61 241.026C277.87 239.787 278.871 238.31 279.555 236.68C280.238 235.051 280.589 233.302 280.589 231.534C280.589 229.767 280.238 228.018 279.555 226.388C278.871 224.759 277.87 223.282 276.61 222.043C275.349 220.804 273.855 219.829 272.214 219.174C270.573 218.519 268.818 218.198 267.051 218.228H198.839Z" stroke="black" stroke-width="4" stroke-linecap="round" stroke-linejoin="round"/>
<path d="M62.4473 221.553H95.7113C97.4765 221.553 99.1693 222.254 100.418 223.502C101.666 224.75 102.367 226.444 102.367 228.209V318.029C102.366 319.793 101.664 321.485 100.416 322.733C99.1681 323.98 97.4757 324.681 95.7113 324.681H62.4473" stroke="black" stroke-width="4" stroke-linecap="round" stroke-linejoin="round"/>
<path d="M176.079 5.14056C176.543 4.19816 177.261 3.40416 178.153 2.84924C179.045 2.2942 180.074 2 181.125 2C182.175 2 183.205 2.2942 184.097 2.84924C184.988 3.40416 185.707 4.19816 186.171 5.14056L196.35 25.7726C196.755 26.591 197.352 27.2986 198.091 27.8346C198.829 28.3702 199.687 28.7186 200.591 28.8486L223.363 32.1606C224.402 32.3114 225.379 32.7502 226.182 33.427C226.985 34.1038 227.582 34.9918 227.907 35.9906C228.232 36.9894 228.27 38.0594 228.019 39.079C227.767 40.0986 227.235 41.0274 226.483 41.7606L209.999 57.8206C209.349 58.4606 208.865 59.2478 208.586 60.1158C208.307 60.9838 208.243 61.9066 208.399 62.8046L212.287 85.4886C212.465 86.5238 212.351 87.5882 211.955 88.5614C211.56 89.5346 210.9 90.3774 210.051 90.995C209.201 91.6126 208.195 91.9794 207.147 92.0546C206.1 92.1298 205.052 91.9102 204.123 91.4206L183.755 80.7126C182.947 80.287 182.048 80.0646 181.135 80.0646C180.222 80.0646 179.322 80.287 178.514 80.7126L158.135 91.4206C157.205 91.9102 156.158 92.1298 155.11 92.0546C154.062 91.9794 153.056 91.6126 152.207 90.995C151.357 90.3774 150.697 89.5346 150.302 88.5614C149.907 87.5882 149.792 86.5238 149.971 85.4886L153.859 62.8046C154.014 61.9046 153.947 60.9806 153.665 60.1126C153.383 59.2442 152.893 58.4574 152.239 57.8206L135.763 41.7606C135.011 41.0278 134.479 40.0994 134.227 39.0798C133.975 38.0606 134.013 36.991 134.337 35.9922C134.661 34.9934 135.258 34.1054 136.061 33.4282C136.864 32.751 137.84 32.3122 138.878 32.1606L161.651 28.8486C162.555 28.7202 163.414 28.373 164.153 27.837C164.892 27.301 165.488 26.5922 165.891 25.7726L176.079 5.14056Z" stroke="black" stroke-width="4" stroke-linecap="round" stroke-linejoin="round"/>
<path d="M61.599 54.0286C61.5202 53.1642 61.6846 52.2946 62.0738 51.5186C62.463 50.7422 63.0614 50.0906 63.8018 49.6366C64.5418 49.1826 65.3942 48.945 66.2622 48.9498C67.1306 48.9546 67.9802 49.2022 68.715 49.6646L84.799 59.8046C85.437 60.207 86.1634 60.4478 86.9154 60.5062C87.6674 60.565 88.4222 60.4394 89.115 60.1406L106.595 52.6326C107.393 52.2894 108.27 52.1766 109.129 52.3062C109.987 52.4362 110.792 52.8034 111.453 53.367C112.113 53.9306 112.603 54.6678 112.866 55.495C113.13 56.3226 113.156 57.207 112.943 58.0486L108.271 76.4886C108.087 77.2202 108.083 77.9854 108.259 78.719C108.435 79.4526 108.787 80.1326 109.283 80.7006L121.831 95.0046C122.403 95.6578 122.781 96.4586 122.922 97.3154C123.063 98.1726 122.961 99.0518 122.629 99.8542C122.295 100.656 121.745 101.349 121.038 101.854C120.331 102.359 119.498 102.657 118.631 102.713L99.651 103.973C98.8982 104.023 98.1686 104.255 97.5254 104.649C96.8822 105.043 96.3446 105.588 95.959 106.237L86.231 122.585C85.7878 123.331 85.1446 123.939 84.3738 124.339C83.603 124.739 82.7358 124.915 81.8702 124.847C81.0042 124.779 80.175 124.47 79.4758 123.955C78.777 123.44 78.2362 122.739 77.915 121.933L70.851 104.269C70.5694 103.57 70.1222 102.95 69.5482 102.463C68.9742 101.975 68.2902 101.634 67.555 101.469L49.019 97.2606C48.1726 97.069 47.3966 96.6438 46.779 96.0342C46.1614 95.4246 45.7266 94.6538 45.5242 93.8102C45.3214 92.9662 45.359 92.0822 45.6322 91.2586C45.9058 90.435 46.4038 89.7042 47.071 89.1486L61.687 76.9726C62.267 76.4902 62.7206 75.8742 63.009 75.1774C63.2978 74.4806 63.4122 73.7238 63.343 72.9726L61.599 54.0286Z" stroke="black" stroke-width="4" stroke-linecap="round" stroke-linejoin="round"/>
<path d="M2.63489 147.829C2.25489 147.28 2.03637 146.635 2.00417 145.968C1.97193 145.301 2.12725 144.639 2.45257 144.056C2.77785 143.472 3.26005 142.992 3.84445 142.669C4.42889 142.346 5.09213 142.194 5.75889 142.229L20.3309 142.973C20.9093 143.003 21.4864 142.892 22.0122 142.649C22.5378 142.405 22.9958 142.037 23.347 141.577L32.227 129.977C32.6318 129.448 33.1762 129.044 33.799 128.809C34.4214 128.574 35.0974 128.518 35.7502 128.647C36.403 128.776 37.0066 129.085 37.493 129.539C37.9794 129.993 38.3294 130.574 38.503 131.217L42.303 145.313C42.4558 145.87 42.7406 146.382 43.1334 146.806C43.5258 147.23 44.015 147.554 44.559 147.749L58.323 152.609C58.9514 152.83 59.505 153.223 59.9214 153.743C60.3382 154.263 60.601 154.889 60.6798 155.55C60.759 156.212 60.6514 156.882 60.369 157.486C60.087 158.089 59.6414 158.601 59.083 158.965L46.855 166.941C46.373 167.258 45.9758 167.688 45.697 168.193C45.4182 168.698 45.2666 169.264 45.255 169.841L44.883 184.433C44.8662 185.098 44.6638 185.746 44.2986 186.303C43.933 186.86 43.419 187.303 42.8146 187.582C42.2102 187.862 41.5398 187.967 40.879 187.886C40.2178 187.804 39.593 187.539 39.075 187.121L27.715 177.949C27.2634 177.587 26.731 177.34 26.1638 177.228C25.5962 177.116 25.0102 177.142 24.455 177.305L10.4549 181.461C9.81757 181.651 9.13965 181.66 8.49769 181.486C7.85569 181.312 7.27521 180.961 6.82177 180.474C6.36829 179.988 6.05997 179.384 5.93153 178.731C5.80309 178.078 5.85969 177.403 6.09489 176.781L11.2949 163.149C11.5021 162.608 11.5739 162.024 11.5042 161.449C11.4345 160.874 11.2253 160.324 10.8949 159.849L2.63489 147.829Z" stroke="black" stroke-width="4" stroke-linecap="round" stroke-linejoin="round"/>
<path d="M302.399 54.0286C302.479 53.1642 302.314 52.2946 301.925 51.5186C301.535 50.7422 300.937 50.0906 300.197 49.6366C299.457 49.1826 298.605 48.945 297.736 48.9498C296.868 48.9546 296.019 49.2022 295.283 49.6646L279.199 59.8046C278.561 60.207 277.835 60.4478 277.083 60.5062C276.331 60.565 275.576 60.4394 274.883 60.1406L257.403 52.6326C256.606 52.2894 255.728 52.1766 254.87 52.3062C254.011 52.4362 253.206 52.8034 252.546 53.367C251.885 53.9306 251.395 54.6678 251.132 55.495C250.869 56.3226 250.842 57.207 251.055 58.0486L255.727 76.4886C255.911 77.2202 255.915 77.9854 255.739 78.719C255.563 79.4526 255.212 80.1326 254.715 80.7006L242.167 95.0046C241.595 95.6578 241.217 96.4586 241.076 97.3154C240.935 98.1726 241.037 99.0518 241.37 99.8542C241.703 100.656 242.254 101.349 242.961 101.854C243.667 102.359 244.501 102.657 245.367 102.713L264.347 103.973C265.1 104.023 265.83 104.255 266.473 104.649C267.116 105.043 267.654 105.588 268.039 106.237L277.767 122.585C278.211 123.331 278.854 123.939 279.625 124.339C280.395 124.739 281.263 124.915 282.129 124.847C282.994 124.779 283.823 124.47 284.523 123.955C285.221 123.44 285.762 122.739 286.083 121.933L293.147 104.269C293.429 103.57 293.876 102.95 294.45 102.463C295.025 101.975 295.709 101.634 296.443 101.469L314.999 97.2726C315.846 97.081 316.622 96.6558 317.239 96.0462C317.857 95.4366 318.292 94.6662 318.495 93.8222C318.697 92.9782 318.66 92.0942 318.386 91.2706C318.113 90.447 317.615 89.7162 316.947 89.1606L302.331 76.9846C301.752 76.5022 301.298 75.8862 301.009 75.1894C300.721 74.4926 300.606 73.7358 300.675 72.9846L302.399 54.0286Z" stroke="black" stroke-width="4" stroke-linecap="round" stroke-linejoin="round"/>
<path d="M361.363 147.829C361.743 147.28 361.962 146.635 361.994 145.968C362.026 145.301 361.871 144.639 361.545 144.056C361.22 143.472 360.738 142.992 360.154 142.669C359.569 142.346 358.906 142.194 358.239 142.229L343.667 142.973C343.089 143.003 342.512 142.892 341.986 142.649C341.461 142.405 341.002 142.037 340.651 141.577L331.771 129.977C331.366 129.448 330.822 129.044 330.199 128.809C329.577 128.574 328.901 128.518 328.248 128.647C327.595 128.776 326.991 129.085 326.505 129.539C326.019 129.993 325.669 130.574 325.495 131.217L321.695 145.313C321.542 145.87 321.257 146.382 320.865 146.806C320.472 147.23 319.983 147.554 319.439 147.749L305.675 152.609C305.047 152.83 304.493 153.223 304.077 153.743C303.66 154.263 303.397 154.889 303.318 155.55C303.239 156.212 303.347 156.882 303.629 157.486C303.911 158.089 304.357 158.601 304.915 158.965L317.143 166.941C317.629 167.256 318.03 167.685 318.312 168.19C318.595 168.696 318.749 169.262 318.763 169.841L319.135 184.433C319.152 185.098 319.354 185.746 319.72 186.303C320.085 186.86 320.599 187.303 321.203 187.582C321.808 187.862 322.478 187.967 323.139 187.886C323.8 187.804 324.425 187.539 324.943 187.121L336.303 177.949C336.755 177.587 337.287 177.34 337.855 177.228C338.422 177.116 339.008 177.142 339.563 177.305L353.563 181.461C354.201 181.65 354.88 181.658 355.523 181.481C356.165 181.305 356.745 180.953 357.197 180.464C357.649 179.976 357.956 179.37 358.083 178.716C358.209 178.063 358.149 177.386 357.911 176.765L352.711 163.133C352.504 162.592 352.432 162.008 352.502 161.433C352.571 160.858 352.781 160.308 353.111 159.833L361.363 147.829Z" stroke="black" stroke-width="4" stroke-linecap="round" stroke-linejoin="round"/>
</svg>
