<svg width="500" height="500" viewBox="0 0 500 500" fill="none" xmlns="http://www.w3.org/2000/svg">
<rect width="500" height="500" fill="white"/>
<path d="M20.1272 40.0791L24.0825 38.7609L24.7856 39.0834C26.3875 39.9041 28.1259 40.3144 30.0009 40.3144C33.1847 40.2169 35.8359 39.1769 37.9547 37.1944C40.0734 35.2119 41.1722 32.8144 41.2509 30.0019C41.1728 27.1894 40.074 24.7919 37.9547 22.8094C35.8353 20.8269 33.184 19.7869 30.0009 19.6894C26.8172 19.7869 24.1659 20.8269 22.0472 22.8094C19.9284 24.7919 18.8297 27.1894 18.7509 30.0019C18.7509 31.0175 18.9269 32.0234 19.2787 33.0197C19.6306 34.0159 20.1481 34.9534 20.8312 35.8322L21.4762 36.6816L20.1272 40.0791ZM18.779 42.4819C18.4078 42.5994 18.0903 42.5163 17.8265 42.2325C17.5628 41.9488 17.4994 41.6216 17.6362 41.2509L19.3359 36.9731C18.5547 35.9381 17.949 34.8297 17.519 33.6478C17.089 32.4659 16.874 31.25 16.874 30C16.9522 26.7775 18.2022 23.97 20.624 21.5775C23.0459 19.185 26.1709 17.93 29.999 17.8125C33.8272 17.93 36.9522 19.185 39.374 21.5775C41.7959 23.97 43.0459 26.7775 43.124 30C43.0459 33.2225 41.7959 36.03 39.374 38.4225C36.9522 40.815 33.8272 42.07 29.999 42.1875C27.8703 42.1875 25.8487 41.7188 23.9344 40.7813L18.779 42.4819ZM30 31.4953C29.7262 31.4953 29.4772 31.4319 29.2528 31.305C29.0284 31.1781 28.8478 30.9925 28.7109 30.7481C28.574 30.5038 28.5056 30.2547 28.5056 30.0009C28.5056 29.7472 28.574 29.4981 28.7109 29.2538C28.8478 29.0094 29.0284 28.8238 29.2528 28.6969C29.4772 28.57 29.7262 28.5066 30 28.5066C30.43 28.5066 30.7865 28.6481 31.0697 28.9313C31.3528 29.2144 31.4944 29.5709 31.4944 30.0009C31.4944 30.4309 31.3528 30.7875 31.0697 31.0706C30.7865 31.3538 30.43 31.4953 30 31.4953V31.4953ZM35.625 31.4953C35.3512 31.4953 35.1022 31.4319 34.8778 31.305C34.6534 31.1781 34.4728 30.9925 34.3359 30.7481C34.199 30.5038 34.1306 30.2547 34.1306 30.0009C34.1306 29.7472 34.199 29.4981 34.3359 29.2538C34.4728 29.0094 34.6534 28.8238 34.8778 28.6969C35.1022 28.57 35.3512 28.5066 35.625 28.5066C36.055 28.5066 36.4115 28.6481 36.6947 28.9313C36.9778 29.2144 37.1194 29.5709 37.1194 30.0009C37.1194 30.4309 36.9778 30.7875 36.6947 31.0706C36.4115 31.3538 36.055 31.4953 35.625 31.4953V31.4953ZM24.375 31.4953C24.1012 31.4953 23.8522 31.4319 23.6278 31.305C23.4034 31.1781 23.2228 30.9925 23.0859 30.7481C22.949 30.5038 22.8806 30.2547 22.8806 30.0009C22.8806 29.7472 22.949 29.4981 23.0859 29.2538C23.2228 29.0094 23.4034 28.8238 23.6278 28.6969C23.8522 28.57 24.1012 28.5066 24.375 28.5066C24.805 28.5066 25.1615 28.6481 25.4447 28.9313C25.7278 29.2144 25.8694 29.5709 25.8694 30.0009C25.8694 30.4309 25.7278 30.7875 25.4447 31.0706C25.1615 31.3538 24.805 31.4953 24.375 31.4953V31.4953Z" fill="#08080A" fill-opacity="0.96"/>
<circle cx="30" cy="30" r="30" fill="#48EC9D" fill-opacity="0.2"/>
<path d="M110 30C111.602 29.9606 112.93 29.4138 113.984 28.3594C115.039 27.305 115.586 25.9769 115.625 24.375C115.586 22.7731 115.039 21.445 113.984 20.3906C112.93 19.3362 111.602 18.7894 110 18.75C108.398 18.7894 107.07 19.3362 106.016 20.3906C104.961 21.445 104.414 22.7731 104.375 24.375C104.414 25.9769 104.961 27.305 106.016 28.3594C107.07 29.4138 108.398 29.9606 110 30ZM110 31.875C107.871 31.8162 106.104 31.0838 104.697 29.6775C103.291 28.2713 102.559 26.5037 102.5 24.375C102.559 22.2463 103.291 20.4787 104.697 19.0725C106.104 17.6662 107.871 16.9338 110 16.875C112.129 16.9338 113.896 17.6662 115.303 19.0725C116.709 20.4787 117.441 22.2463 117.5 24.375C117.441 26.5037 116.709 28.2713 115.303 29.6775C113.896 31.0838 112.129 31.8162 110 31.875ZM110 30C110.274 30 110.498 30.0878 110.674 30.2634C110.85 30.4391 110.938 30.6638 110.938 30.9375V38.4375C110.938 38.7112 110.85 38.9359 110.674 39.1116C110.498 39.2872 110.274 39.375 110 39.375C109.726 39.375 109.502 39.2872 109.326 39.1116C109.15 38.9359 109.062 38.7112 109.062 38.4375V30.9375C109.062 30.6638 109.15 30.4391 109.326 30.2634C109.502 30.0878 109.726 30 110 30V30ZM106.25 34.0134V35.9175C104.551 36.2106 103.193 36.5962 102.178 37.0744C101.162 37.5525 100.644 38.0066 100.625 38.4366C100.684 39.0422 101.587 39.6525 103.335 40.2675C105.083 40.8825 107.305 41.2097 110 41.2491C112.696 41.2097 114.917 40.8825 116.665 40.2675C118.412 39.6525 119.316 39.0422 119.375 38.4366C119.356 38.0066 118.838 37.5525 117.822 37.0744C116.807 36.5962 115.449 36.2106 113.75 35.9175V34.0134C115.977 34.3453 117.774 34.9069 119.141 35.6981C120.507 36.4894 121.211 37.4025 121.25 38.4375C121.172 39.7656 120.073 40.8691 117.954 41.7478C115.834 42.6266 113.183 43.0856 110 43.125C106.816 43.0856 104.165 42.6266 102.046 41.7478C99.9275 40.8691 98.8287 39.7656 98.75 38.4375C98.7894 37.4025 99.4925 36.4894 100.859 35.6981C102.226 34.9069 104.023 34.3453 106.25 34.0134Z" fill="#08080A" fill-opacity="0.96"/>
<circle cx="110" cy="30" r="30" fill="#8DFF33" fill-opacity="0.2"/>
<path d="M178.75 26.25V39.375H201.25V26.25H178.75ZM177.812 24.375H202.188C202.461 24.375 202.686 24.4628 202.862 24.6384C203.037 24.8141 203.125 25.0388 203.125 25.3125V40.3125C203.125 40.5862 203.037 40.8109 202.862 40.9866C202.686 41.1622 202.461 41.25 202.188 41.25H177.812C177.539 41.25 177.314 41.1622 177.138 40.9866C176.963 40.8109 176.875 40.5862 176.875 40.3125V25.3125C176.875 25.0388 176.963 24.8141 177.138 24.6384C177.314 24.4628 177.539 24.375 177.812 24.375ZM179.688 20.625H200.312V22.5H179.688V20.625ZM182.5 16.875H197.5V18.75H182.5V16.875Z" fill="#08080A" fill-opacity="0.96"/>
<circle cx="190" cy="30" r="30" fill="#F76D6D" fill-opacity="0.2"/>
<path d="M265.518 37.5H259.688C259.414 37.5 259.189 37.4122 259.013 37.2366C258.838 37.0609 258.75 36.8363 258.75 36.5625V20.625H256.875C256.601 20.625 256.377 20.5372 256.201 20.3616C256.025 20.1859 255.938 19.9613 255.938 19.6875C255.938 19.4137 256.025 19.1891 256.201 19.0134C256.377 18.8378 256.601 18.75 256.875 18.75H283.125C283.399 18.75 283.623 18.8378 283.799 19.0134C283.975 19.1891 284.062 19.4137 284.062 19.6875C284.062 19.9613 283.975 20.1859 283.799 20.3616C283.623 20.5372 283.399 20.625 283.125 20.625H281.25V36.5625C281.25 36.8363 281.162 37.0609 280.987 37.2366C280.811 37.4122 280.586 37.5 280.312 37.5H274.482L277.734 43.125H275.566L272.314 37.5H267.684L264.432 43.125H262.264L265.518 37.5ZM279.375 20.625H260.625V35.625H279.375V20.625ZM265.049 30.6741C264.853 30.8497 264.629 30.9375 264.375 30.9375C264.121 30.9375 263.902 30.8447 263.716 30.6591C263.53 30.4734 263.438 30.2537 263.438 30C263.438 29.7463 263.525 29.5216 263.701 29.3259L268.037 25.0191L271.699 27.7734L274.892 23.7891C275.126 23.4959 275.424 23.3738 275.785 23.4225C276.147 23.4713 276.391 23.6666 276.517 24.0084C276.644 24.3503 276.591 24.6678 276.356 24.9609L272.049 30.3516L268.211 27.48L265.049 30.6741Z" fill="#08080A" fill-opacity="0.96"/>
<circle cx="270" cy="30" r="30" fill="#4857EC" fill-opacity="0.2"/>
<circle cx="27" cy="107" r="27" fill="#4857EC" fill-opacity="0.1"/>
<path d="M31.0802 111.423C29.8824 112.532 28.2581 113.155 26.5645 113.155C24.8709 113.155 23.2466 112.532 22.0488 111.423M21.7742 104.285H21.7902M31.3548 104.285H31.3708M40.9355 107.242C40.9355 108.99 40.5638 110.72 39.8416 112.334C39.1194 113.949 38.0608 115.416 36.7263 116.651C35.3919 117.887 33.8076 118.867 32.064 119.536C30.3205 120.205 28.4517 120.549 26.5645 120.549C24.6773 120.549 22.8086 120.205 21.065 119.536C19.3214 118.867 17.7372 117.887 16.4027 116.651C15.0682 115.416 14.0097 113.949 13.2875 112.334C12.5653 110.72 12.1936 108.99 12.1936 107.242C12.1936 103.713 13.7076 100.328 16.4027 97.833C19.0978 95.3375 22.7531 93.9355 26.5645 93.9355C30.3759 93.9355 34.0312 95.3375 36.7263 97.833C39.4214 100.328 40.9355 103.713 40.9355 107.242Z" stroke="#4857EC" stroke-width="3" stroke-linecap="round" stroke-linejoin="round"/>
<circle cx="107" cy="107" r="27" fill="#FFD6D6" fill-opacity="0.5"/>
<path d="M111.08 111.423C109.882 112.532 108.258 113.155 106.565 113.155C104.871 113.155 103.247 112.532 102.049 111.423M101.774 104.285H101.79M111.355 104.285H111.371M120.935 107.242C120.935 108.99 120.564 110.72 119.842 112.334C119.119 113.949 118.061 115.416 116.726 116.651C115.392 117.887 113.808 118.867 112.064 119.536C110.32 120.205 108.452 120.549 106.565 120.549C104.677 120.549 102.809 120.205 101.065 119.536C99.3214 118.867 97.7372 117.887 96.4027 116.651C95.0682 115.416 94.0097 113.949 93.2875 112.334C92.5653 110.72 92.1936 108.99 92.1936 107.242C92.1936 103.713 93.7076 100.328 96.4027 97.833C99.0978 95.3375 102.753 93.9355 106.565 93.9355C110.376 93.9355 114.031 95.3375 116.726 97.833C119.421 100.328 120.935 103.713 120.935 107.242Z" stroke="#C66464" stroke-width="3" stroke-linecap="round" stroke-linejoin="round"/>
<circle cx="187" cy="107" r="27" fill="#BCFF87" fill-opacity="0.5"/>
<path d="M199.842 112.334C200.564 110.72 200.935 108.99 200.935 107.242C200.935 103.713 199.421 100.328 196.726 97.833C194.031 95.3375 190.376 93.9355 186.565 93.9355C182.753 93.9355 179.098 95.3375 176.403 97.833C173.708 100.328 172.194 103.713 172.194 107.242C172.194 108.99 172.565 110.72 173.287 112.334C174.01 113.949 175.068 115.416 176.403 116.651C177.737 117.887 179.321 118.867 181.065 119.536C182.809 120.205 184.677 120.549 186.565 120.549C188.452 120.549 190.32 120.205 192.064 119.536C193.808 118.867 195.392 117.887 196.726 116.651C198.061 115.416 199.119 113.949 199.842 112.334Z" fill="#E8FFD6"/>
<path d="M191.08 111.423C189.882 112.532 188.258 113.155 186.565 113.155C184.871 113.155 183.247 112.532 182.049 111.423M181.774 104.285H181.79M191.355 104.285H191.371M200.935 107.242C200.935 108.99 200.564 110.72 199.842 112.334C199.119 113.949 198.061 115.416 196.726 116.651C195.392 117.887 193.808 118.867 192.064 119.536C190.32 120.205 188.452 120.549 186.565 120.549C184.677 120.549 182.809 120.205 181.065 119.536C179.321 118.867 177.737 117.887 176.403 116.651C175.068 115.416 174.01 113.949 173.287 112.334C172.565 110.72 172.194 108.99 172.194 107.242C172.194 103.713 173.708 100.328 176.403 97.833C179.098 95.3375 182.753 93.9355 186.565 93.9355C190.376 93.9355 194.031 95.3375 196.726 97.833C199.421 100.328 200.935 103.713 200.935 107.242Z" stroke="#6AAF35" stroke-width="3" stroke-linecap="round" stroke-linejoin="round"/>
<path d="M158.641 162.537C158.39 161.821 157.296 161.821 157.044 162.537L155.768 166.172C155.713 166.328 155.606 166.464 155.463 166.561C155.319 166.657 155.146 166.709 154.969 166.709H150.842C150.029 166.709 149.689 167.673 150.348 168.117L153.687 170.363C153.831 170.459 153.938 170.595 153.992 170.752C154.047 170.908 154.047 171.076 153.992 171.232L152.717 174.867C152.465 175.584 153.351 176.18 154.009 175.737L157.349 173.491C157.492 173.394 157.665 173.342 157.842 173.342C158.02 173.342 158.193 173.394 158.336 173.491L161.676 175.737C162.334 176.18 163.22 175.584 162.968 174.867L161.693 171.232C161.638 171.076 161.638 170.908 161.693 170.752C161.747 170.595 161.854 170.459 161.998 170.363L165.337 168.117C165.995 167.673 165.657 166.709 164.843 166.709H160.715C160.538 166.709 160.365 166.657 160.222 166.56C160.079 166.464 159.972 166.328 159.917 166.172L158.641 162.537Z" fill="#F9C94E"/>
<path d="M175.641 162.537C175.39 161.821 174.296 161.821 174.044 162.537L172.768 166.172C172.713 166.328 172.606 166.464 172.463 166.561C172.319 166.657 172.146 166.709 171.969 166.709H167.842C167.029 166.709 166.689 167.673 167.348 168.117L170.687 170.363C170.831 170.459 170.938 170.595 170.992 170.752C171.047 170.908 171.047 171.076 170.992 171.232L169.717 174.867C169.465 175.584 170.351 176.18 171.009 175.737L174.349 173.491C174.492 173.394 174.665 173.342 174.842 173.342C175.02 173.342 175.193 173.394 175.336 173.491L178.676 175.737C179.334 176.18 180.22 175.584 179.968 174.867L178.693 171.232C178.638 171.076 178.638 170.908 178.693 170.752C178.747 170.595 178.854 170.459 178.998 170.363L182.337 168.117C182.995 167.673 182.657 166.709 181.843 166.709H177.715C177.538 166.709 177.365 166.657 177.222 166.56C177.079 166.464 176.972 166.328 176.917 166.172L175.641 162.537Z" stroke="#F9C94E" stroke-linecap="round" stroke-linejoin="round"/>
<path d="M128.24 168.391C127.67 168.391 127.22 168.891 127.22 169.501C127.22 170.111 127.68 170.611 128.24 170.611C128.81 170.611 129.26 170.111 129.26 169.501C129.27 168.891 128.81 168.391 128.24 168.391ZM131.89 168.391C131.32 168.391 130.87 168.891 130.87 169.501C130.87 170.111 131.33 170.611 131.89 170.611C132.46 170.611 132.91 170.111 132.91 169.501C132.91 168.891 132.46 168.391 131.89 168.391Z" fill="black"/>
<path d="M136.75 160H123.35C122.22 160 121.3 160.92 121.3 162.06V175.58C121.3 176.72 122.22 177.64 123.35 177.64H134.69L134.16 175.79L135.44 176.98L136.65 178.1L138.8 180V162.06C138.8 160.92 137.88 160 136.75 160ZM132.89 173.06C132.89 173.06 132.53 172.63 132.23 172.25C133.54 171.88 134.04 171.06 134.04 171.06C133.63 171.33 133.24 171.52 132.89 171.65C132.39 171.86 131.91 172 131.44 172.08C130.48 172.26 129.6 172.21 128.85 172.07C128.28 171.96 127.79 171.8 127.38 171.64C127.15 171.55 126.9 171.44 126.65 171.3C126.62 171.28 126.59 171.27 126.56 171.25C126.54 171.24 126.53 171.23 126.52 171.22C126.34 171.12 126.24 171.05 126.24 171.05C126.24 171.05 126.72 171.85 127.99 172.23C127.69 172.61 127.32 173.06 127.32 173.06C125.11 172.99 124.27 171.54 124.27 171.54C124.27 168.32 125.71 165.71 125.71 165.71C127.15 164.63 128.52 164.66 128.52 164.66L128.62 164.78C126.82 165.3 125.99 166.09 125.99 166.09C125.99 166.09 126.21 165.97 126.58 165.8C127.65 165.33 128.5 165.2 128.85 165.17C128.91 165.16 128.96 165.15 129.02 165.15C129.63 165.07 130.32 165.05 131.04 165.13C131.99 165.24 133.01 165.52 134.05 166.09C134.05 166.09 133.26 165.34 131.56 164.82L131.7 164.66C131.7 164.66 133.07 164.63 134.51 165.71C134.51 165.71 135.95 168.32 135.95 171.54C135.95 171.54 135.1 172.99 132.89 173.06V173.06Z" fill="black"/>
<g clip-path="url(#clip0_1474_2352)">
<path fill-rule="evenodd" clip-rule="evenodd" d="M100 160.416C97.6262 160.417 95.3301 161.258 93.5224 162.788C91.7147 164.318 90.5133 166.438 90.133 168.768C89.7527 171.098 90.2183 173.486 91.4466 175.506C92.6748 177.526 94.5857 179.046 96.8374 179.793C97.3342 179.886 97.5213 179.578 97.5213 179.316C97.5213 179.054 97.5114 178.295 97.5081 177.465C94.7262 178.066 94.1383 176.291 94.1383 176.291C93.6846 175.139 93.0289 174.836 93.0289 174.836C92.1214 174.22 93.0968 174.232 93.0968 174.232C94.1019 174.302 94.6301 175.257 94.6301 175.257C95.521 176.777 96.9699 176.338 97.5395 176.081C97.629 175.437 97.8889 174.999 98.1754 174.75C95.9532 174.5 93.6184 173.647 93.6184 169.837C93.6046 168.849 93.9734 167.894 94.6483 167.168C94.5457 166.918 94.2029 165.907 94.746 164.534C94.746 164.534 95.5856 164.267 97.4965 165.553C99.1356 165.107 100.865 165.107 102.504 165.553C104.413 164.267 105.251 164.534 105.251 164.534C105.796 165.904 105.453 166.915 105.35 167.168C106.028 167.894 106.397 168.851 106.382 169.84C106.382 173.659 104.042 174.5 101.817 174.745C102.174 175.055 102.494 175.659 102.494 176.588C102.494 177.918 102.482 178.988 102.482 179.316C102.482 179.581 102.663 179.891 103.17 179.793C105.422 179.046 107.333 177.526 108.561 175.505C109.789 173.485 110.255 171.096 109.874 168.766C109.493 166.436 108.291 164.316 106.483 162.787C104.674 161.257 102.378 160.416 100.004 160.416H100Z" fill="black"/>
<path d="M93.787 174.693C93.7655 174.742 93.686 174.757 93.6214 174.722C93.5569 174.688 93.5088 174.623 93.532 174.572C93.5552 174.521 93.633 174.508 93.6976 174.543C93.7622 174.577 93.8119 174.643 93.787 174.693Z" fill="black"/>
<path d="M94.1927 175.143C94.1584 175.16 94.1192 175.165 94.0818 175.157C94.0443 175.148 94.011 175.127 93.9874 175.097C93.9228 175.028 93.9096 174.933 93.9593 174.89C94.0089 174.847 94.0984 174.867 94.1629 174.936C94.2275 175.005 94.2424 175.1 94.1927 175.143Z" fill="black"/>
<path d="M94.5869 175.714C94.5256 175.757 94.4213 175.714 94.3633 175.628C94.3473 175.613 94.3345 175.594 94.3258 175.574C94.3171 175.554 94.3126 175.532 94.3126 175.51C94.3126 175.488 94.3171 175.466 94.3258 175.445C94.3345 175.425 94.3473 175.406 94.3633 175.391C94.4246 175.35 94.5289 175.391 94.5869 175.475C94.6448 175.559 94.6465 175.671 94.5869 175.714V175.714Z" fill="black"/>
<path d="M95.1217 176.266C95.0671 176.327 94.9561 176.311 94.865 176.229C94.774 176.146 94.7524 176.034 94.8071 175.975C94.8617 175.916 94.9727 175.932 95.0671 176.013C95.1615 176.094 95.1797 176.207 95.1217 176.266V176.266Z" fill="black"/>
<path d="M95.8718 176.589C95.847 176.667 95.7344 176.701 95.6218 176.668C95.5092 176.635 95.4347 176.543 95.4562 176.464C95.4777 176.385 95.592 176.349 95.7062 176.385C95.8205 176.421 95.8933 176.509 95.8718 176.589Z" fill="black"/>
<path d="M96.6899 176.647C96.6899 176.728 96.5971 176.797 96.4779 176.798C96.3587 176.8 96.261 176.734 96.261 176.653C96.261 176.573 96.3537 176.504 96.4729 176.502C96.5922 176.5 96.6899 176.565 96.6899 176.647Z" fill="black"/>
<path d="M97.4516 176.52C97.4665 176.601 97.3837 176.685 97.2645 176.704C97.1452 176.724 97.0409 176.676 97.026 176.597C97.0111 176.518 97.0972 176.433 97.2131 176.411C97.329 176.39 97.4367 176.439 97.4516 176.52Z" fill="black"/>
</g>
<g clip-path="url(#clip1_1474_2352)">
<path d="M79.6017 165.155C79.4886 164.73 79.2657 164.341 78.9554 164.029C78.6451 163.717 78.2582 163.491 77.8335 163.376C76.2698 162.955 70.0198 162.955 70.0198 162.955C70.0198 162.955 63.7698 162.955 62.2062 163.376C61.7814 163.491 61.3946 163.717 61.0842 164.029C60.7739 164.341 60.5511 164.73 60.438 165.155C60.0198 166.726 60.0198 170.001 60.0198 170.001C60.0198 170.001 60.0198 173.276 60.438 174.846C60.5511 175.271 60.7739 175.66 61.0842 175.972C61.3946 176.284 61.7814 176.51 62.2062 176.626C63.7698 177.046 70.0198 177.046 70.0198 177.046C70.0198 177.046 76.2698 177.046 77.8335 176.626C78.2582 176.51 78.6451 176.284 78.9554 175.972C79.2657 175.66 79.4886 175.271 79.6017 174.846C80.0198 173.276 80.0198 170.001 80.0198 170.001C80.0198 170.001 80.0198 166.726 79.6017 165.155Z" fill="black"/>
<path d="M67.9744 172.973V167.025L73.2017 169.999L67.9744 172.973Z" fill="#FEFEFE"/>
</g>
<path d="M20 171C20 165.477 15.5229 161 10 161C4.47715 161 0 165.477 0 171C0 175.991 3.65684 180.128 8.4375 180.879V173.891H5.89844V171H8.4375V168.797C8.4375 166.291 9.93047 164.906 12.2146 164.906C13.3084 164.906 14.4531 165.102 14.4531 165.102V167.563H13.1922C11.95 167.563 11.5625 168.333 11.5625 169.125V171H14.3359L13.8926 173.891H11.5625V180.879C16.3432 180.128 20 175.991 20 171Z" fill="black"/>
<g clip-path="url(#clip2_1474_2352)">
<path d="M40 161.801C42.6719 161.801 42.9883 161.812 44.0391 161.859C45.0156 161.902 45.543 162.066 45.8945 162.203C46.3594 162.383 46.6953 162.602 47.043 162.949C47.3945 163.301 47.6094 163.633 47.7891 164.098C47.9258 164.449 48.0898 164.98 48.1328 165.953C48.1797 167.008 48.1914 167.324 48.1914 169.992C48.1914 172.664 48.1797 172.98 48.1328 174.031C48.0898 175.008 47.9258 175.535 47.7891 175.887C47.6094 176.352 47.3906 176.688 47.043 177.035C46.6914 177.387 46.3594 177.602 45.8945 177.781C45.543 177.918 45.0117 178.082 44.0391 178.125C42.9844 178.172 42.668 178.184 40 178.184C37.3281 178.184 37.0117 178.172 35.9609 178.125C34.9844 178.082 34.457 177.918 34.1055 177.781C33.6406 177.602 33.3047 177.383 32.957 177.035C32.6055 176.684 32.3906 176.352 32.2109 175.887C32.0742 175.535 31.9102 175.004 31.8672 174.031C31.8203 172.977 31.8086 172.66 31.8086 169.992C31.8086 167.32 31.8203 167.004 31.8672 165.953C31.9102 164.977 32.0742 164.449 32.2109 164.098C32.3906 163.633 32.6094 163.297 32.957 162.949C33.3086 162.598 33.6406 162.383 34.1055 162.203C34.457 162.066 34.9883 161.902 35.9609 161.859C37.0117 161.812 37.3281 161.801 40 161.801ZM40 160C37.2852 160 36.9453 160.012 35.8789 160.059C34.8164 160.105 34.0859 160.277 33.4531 160.523C32.793 160.781 32.2344 161.121 31.6797 161.68C31.1211 162.234 30.7813 162.793 30.5234 163.449C30.2773 164.086 30.1055 164.812 30.0586 165.875C30.0117 166.945 30 167.285 30 170C30 172.715 30.0117 173.055 30.0586 174.121C30.1055 175.184 30.2773 175.914 30.5234 176.547C30.7813 177.207 31.1211 177.766 31.6797 178.32C32.2344 178.875 32.793 179.219 33.4492 179.473C34.0859 179.719 34.8125 179.891 35.875 179.938C36.9414 179.984 37.2813 179.996 39.9961 179.996C42.7109 179.996 43.0508 179.984 44.1172 179.938C45.1797 179.891 45.9102 179.719 46.543 179.473C47.1992 179.219 47.7578 178.875 48.3125 178.32C48.8672 177.766 49.2109 177.207 49.4648 176.551C49.7109 175.914 49.8828 175.188 49.9297 174.125C49.9766 173.059 49.9883 172.719 49.9883 170.004C49.9883 167.289 49.9766 166.949 49.9297 165.883C49.8828 164.82 49.7109 164.09 49.4648 163.457C49.2188 162.793 48.8789 162.234 48.3203 161.68C47.7656 161.125 47.207 160.781 46.5508 160.527C45.9141 160.281 45.1875 160.109 44.125 160.063C43.0547 160.012 42.7148 160 40 160Z" fill="black"/>
<path d="M40 164.863C37.1641 164.863 34.8633 167.164 34.8633 170C34.8633 172.836 37.1641 175.137 40 175.137C42.8359 175.137 45.1367 172.836 45.1367 170C45.1367 167.164 42.8359 164.863 40 164.863ZM40 173.332C38.1602 173.332 36.668 171.84 36.668 170C36.668 168.16 38.1602 166.668 40 166.668C41.8398 166.668 43.332 168.16 43.332 170C43.332 171.84 41.8398 173.332 40 173.332Z" fill="black"/>
<path d="M46.5391 164.66C46.5391 165.324 46 165.859 45.3398 165.859C44.6758 165.859 44.1406 165.32 44.1406 164.66C44.1406 163.996 44.6797 163.461 45.3398 163.461C46 163.461 46.5391 164 46.5391 164.66Z" fill="black"/>
</g>
<defs>
<clipPath id="clip0_1474_2352">
<rect width="20" height="20" fill="white" transform="translate(90 160)"/>
</clipPath>
<clipPath id="clip1_1474_2352">
<rect width="20" height="20" fill="white" transform="translate(60 160)"/>
</clipPath>
<clipPath id="clip2_1474_2352">
<rect width="20" height="20" fill="white" transform="translate(30 160)"/>
</clipPath>
</defs>
</svg>
